SplineFontDB: 3.0
FontName: Marianne-Bold
FullName: Marianne Bold
FamilyName: Marianne
Weight: Bold
Copyright: Service dInformation du Gouvernement
UComments: "2021-11-12: Created with FontForge (http://fontforge.org)"
Version: 001.000
ItalicAngle: 0
UnderlinePosition: -100
UnderlineWidth: 50
Ascent: 800
Descent: 200
InvalidEm: 0
LayerCount: 2
Layer: 0 0 "Arri+AOgA-re" 1
Layer: 1 0 "Avant" 0
XUID: [1021 72 -71167352 1248775]
OS2Version: 0
OS2_WeightWidthSlopeOnly: 0
OS2_UseTypoMetrics: 1
CreationTime: 1636704662
ModificationTime: 1636704785
OS2TypoAscent: 0
OS2TypoAOffset: 1
OS2TypoDescent: 0
OS2TypoDOffset: 1
OS2TypoLinegap: 0
OS2WinAscent: 0
OS2WinAOffset: 1
OS2WinDescent: 0
OS2WinDOffset: 1
HheadAscent: 0
HheadAOffset: 1
HheadDescent: 0
HheadDOffset: 1
OS2Vendor: 'PfEd'
MarkAttachClasses: 1
DEI: 91125
Encoding: ISO8859-1
UnicodeInterp: none
NameList: AGL For New Fonts
DisplaySize: -48
AntiAlias: 1
FitToEm: 0
WinInfo: 0 18 14
BeginPrivate: 0
EndPrivate
BeginChars: 256 189

StartChar: exclam
Encoding: 33 33 1
Width: 331
Flags: W
HStem: -12 174<142 189.5> 680 20G<92 238 238 238>
VStem: 78 175<51.5 98.5> 105 120
LayerCount: 2
Fore
SplineSet
118 225 m 1xd0
 92 700 l 1
 238 700 l 1
 212 225 l 1
 118 225 l 1xd0
166 -12 m 0xe0
 118 -12 78 28 78 75 c 0
 78 122 117 162 166 162 c 0
 213 162 253 122 253 75 c 0
 253 28 213 -12 166 -12 c 0xe0
EndSplineSet
EndChar

StartChar: quotedbl
Encoding: 34 34 2
Width: 490
Flags: W
HStem: 412 288<80 191 80 80 299 299 299 410>
VStem: 72 126.5 291 126.5
LayerCount: 2
Fore
SplineSet
191 412 m 1
 80 412 l 1
 64 700 l 1
 206 700 l 1
 191 412 l 1
410 412 m 1
 299 412 l 1
 283 700 l 1
 425 700 l 1
 410 412 l 1
EndSplineSet
EndChar

StartChar: numbersign
Encoding: 35 35 3
Width: 695
Flags: W
HStem: 0 21G<68 182 68 68 322 436 322 322> 179 103<42 117 42 145 259 371 42 231 513 652> 418 103<42 183 42 211 42 297 325 437 579 652> 680 20G<260 374 374 374 514 628 628 628>
VStem: 42 610<179 282 179 282 418 521 179 521>
LayerCount: 2
Fore
SplineSet
42 282 m 1
 145 282 l 1
 183 418 l 1
 42 418 l 1
 42 521 l 1
 211 521 l 1
 260 700 l 1
 374 700 l 1
 325 521 l 1
 465 521 l 1
 514 700 l 1
 628 700 l 1
 579 521 l 1
 652 521 l 1
 652 418 l 1
 551 418 l 1
 513 282 l 1
 652 282 l 1
 652 179 l 1
 485 179 l 1
 436 0 l 1
 322 0 l 1
 371 179 l 1
 231 179 l 1
 182 0 l 1
 68 0 l 1
 117 179 l 1
 42 179 l 1
 42 282 l 1
259 282 m 1
 399 282 l 1
 437 418 l 1
 297 418 l 1
 259 282 l 1
EndSplineSet
EndChar

StartChar: dollar
Encoding: 36 36 4
Width: 600
Flags: W
HStem: 750 20G<253 360 360 360>
VStem: 70 124<497 530.5 497 555.5> 253 107<-70 3 3 3 118 272 443 583 697 770> 422 124<201 214.5>
LayerCount: 2
Fore
SplineSet
40 112 m 1
 130 195 l 1
 166 155 208 129 253 118 c 1
 253 311 l 1
 163 343 70 387 70 509 c 0
 70 602 143 679 253 697 c 1
 253 770 l 1
 360 770 l 1
 360 697 l 1
 441 685 506 647 554 591 c 1
 464 508 l 1
 435 545 399 570 360 583 c 1
 360 403 l 1
 451 371 546 326 546 201 c 0
 544 93 467 22 360 4 c 1
 360 -70 l 1
 253 -70 l 1
 253 3 l 1
 160 13 91 50 40 112 c 1
194 514 m 0
 194 480 218 459 253 443 c 1
 253 586 l 1
 213 574 194 547 194 514 c 0
422 197 m 0
 422 232 397 254 360 272 c 1
 360 118 l 1
 402 130 422 158 422 197 c 0
EndSplineSet
EndChar

StartChar: percent
Encoding: 37 37 5
Width: 830
Flags: W
HStem: -19 85<603.5 648 603.5 676.5> 230 85<603.5 648> 388 85<181.5 226 181.5 254.5> 637 85<181.5 226> 681 20G<605 735 735 735>
VStem: 32 95<530.5 579.5 530.5 602> 280 94<531 579.5> 454 95<123.5 172.5 123.5 195> 702 94<124 172.5>
LayerCount: 2
Fore
SplineSet
204 722 m 0xf780
 305 722 374 649 374 555 c 0
 374 461 305 388 204 388 c 0
 102 388 32 461 32 555 c 0
 32 649 102 722 204 722 c 0xf780
91 1 m 1xef80
 605 701 l 1
 735 701 l 1
 221 1 l 1
 91 1 l 1xef80
204 473 m 0xf780
 248 473 280 507 280 555 c 0
 280 604 248 637 204 637 c 0
 159 637 127 604 127 555 c 0
 127 506 159 473 204 473 c 0xf780
626 315 m 0xef80
 727 315 796 242 796 148 c 0
 796 54 727 -19 626 -19 c 0
 524 -19 454 54 454 148 c 0
 454 242 524 315 626 315 c 0xef80
626 66 m 0
 670 66 702 100 702 148 c 0
 702 197 670 230 626 230 c 0
 581 230 549 197 549 148 c 0
 549 99 581 66 626 66 c 0
EndSplineSet
EndChar

StartChar: ampersand
Encoding: 38 38 6
Width: 740
Flags: W
HStem: -20 114<276 333.5 276 348.5> 0 21G<564 727 564 564> 0 136<594 594 594 727 564 594> 607 113<303.5 351>
VStem: 48 133<171 230.5 171 252.5> 121 129<511.5 553 507 591> 401 119<512.5 555.5>
LayerCount: 2
Fore
SplineSet
727 0 m 1x5a
 564 0 l 1x56
 515 49 l 1
 459 5 391 -20 306 -20 c 0
 156 -20 48 62 48 208 c 0x9a
 48 297 104 361 174 393 c 1
 137 442 121 485 121 538 c 0
 121 644 201 720 325 720 c 0
 436 720 520 652 520 542 c 0
 520 448 457 390 377 360 c 1
 505 228 l 1
 529 269 548 318 559 375 c 1
 689 375 l 1
 668 283 637 201 594 136 c 1x36
 727 0 l 1x5a
250 530 m 0
 250 484 276 461 304 433 c 1
 376 455 401 488 401 537 c 0
 401 574 374 607 328 607 c 0
 279 607 250 576 250 530 c 0
181 208 m 0x9a
 181 134 238 94 314 94 c 0
 353 94 392 108 426 135 c 1
 255 303 l 2
 252 306 249 309 246 312 c 1
 204 290 181 253 181 208 c 0x9a
EndSplineSet
EndChar

StartChar: quotesingle
Encoding: 39 39 7
Width: 270
Flags: W
HStem: 412 288<80 191 80 80>
VStem: 72 126.5
LayerCount: 2
Fore
SplineSet
191 412 m 1
 80 412 l 1
 64 700 l 1
 206 700 l 1
 191 412 l 1
EndSplineSet
EndChar

StartChar: parenleft
Encoding: 40 40 8
Width: 363
Flags: W
HStem: 730 20G<251 251>
VStem: 51 126<194 357.5 194 377.5>
LayerCount: 2
Fore
SplineSet
177 276 m 0
 177 112 232 -16 341 -125 c 1
 251 -200 l 1
 126 -87 51 75 51 276 c 0
 51 479 133 641 251 750 c 1
 341 675 l 1
 236 571 177 439 177 276 c 0
EndSplineSet
EndChar

StartChar: parenright
Encoding: 41 41 9
Width: 363
Flags: W
HStem: 730 20G<111 111>
VStem: 186 125<192.5 356>
LayerCount: 2
Fore
SplineSet
186 274 m 0
 186 438 131 567 21 675 c 1
 111 750 l 1
 235 638 311 476 311 274 c 0
 311 71 230 -90 111 -200 c 1
 21 -125 l 1
 128 -21 186 111 186 274 c 0
EndSplineSet
EndChar

StartChar: asterisk
Encoding: 42 42 10
Width: 471
Flags: W
HStem: 484 20G<20 20 451 451> 680 20G<182 290 290 290>
VStem: 187.5 96.5
LayerCount: 2
Fore
SplineSet
402 353 m 1
 315 290 l 1
 235 418 l 1
 156 290 l 1
 69 353 l 1
 166 468 l 1
 20 504 l 1
 53 607 l 1
 193 549 l 1
 182 700 l 1
 290 700 l 1
 278 549 l 1
 418 607 l 1
 451 504 l 1
 304 468 l 1
 402 353 l 1
EndSplineSet
EndChar

StartChar: plus
Encoding: 43 43 11
Width: 600
Flags: W
HStem: 0 21G<246 354 246 246> 198 108<48 246 48 246 354 551> 484 20G<246 354 354 354>
VStem: 246 108<0 198 0 198 306 504>
LayerCount: 2
Fore
SplineSet
551 198 m 1
 354 198 l 1
 354 0 l 1
 246 0 l 1
 246 198 l 1
 48 198 l 1
 48 306 l 1
 246 306 l 1
 246 504 l 1
 354 504 l 1
 354 306 l 1
 551 306 l 1
 551 198 l 1
EndSplineSet
EndChar

StartChar: comma
Encoding: 44 44 12
Width: 270
Flags: W
HStem: -160 299<109 136 18 252>
VStem: 18 234
LayerCount: 2
Fore
SplineSet
136 -160 m 1
 18 -160 l 1
 109 139 l 1
 252 139 l 1
 136 -160 l 1
EndSplineSet
EndChar

StartChar: hyphen
Encoding: 45 45 13
Width: 310
Flags: W
HStem: 194 123<20 290 20 290>
VStem: 20 270<194 317 194 317>
LayerCount: 2
Fore
SplineSet
20 317 m 1
 290 317 l 1
 290 194 l 1
 20 194 l 1
 20 317 l 1
EndSplineSet
EndChar

StartChar: period
Encoding: 46 46 14
Width: 270
Flags: W
HStem: -12 174<111.5 159.5>
VStem: 48 176<51 98.5>
LayerCount: 2
Fore
SplineSet
136 -12 m 0
 87 -12 48 27 48 75 c 0
 48 122 87 162 136 162 c 0
 183 162 224 122 224 75 c 0
 224 27 183 -12 136 -12 c 0
EndSplineSet
EndChar

StartChar: slash
Encoding: 47 47 15
Width: 377
Flags: W
HStem: 730 20G<237 366 366 366>
VStem: 11 355
LayerCount: 2
Fore
SplineSet
11 -197 m 1
 237 750 l 1
 366 750 l 1
 140 -197 l 1
 11 -197 l 1
EndSplineSet
EndChar

StartChar: zero
Encoding: 48 48 16
Width: 600
Flags: W
HStem: -20 125<255.5 344 255.5 392> 595 125<255.5 344>
VStem: 30 138<276 423.5 276 455> 431 139<276.5 424>
LayerCount: 2
Fore
SplineSet
300 720 m 0
 484 720 570 560 570 350 c 0
 570 140 484 -20 300 -20 c 0
 116 -20 30 140 30 350 c 0
 30 560 116 720 300 720 c 0
300 595 m 0
 211 595 168 497 168 350 c 0
 168 202 211 105 300 105 c 0
 388 105 431 203 431 350 c 0
 431 498 388 595 300 595 c 0
EndSplineSet
EndChar

StartChar: one
Encoding: 49 49 17
Width: 462
Flags: W
HStem: 681 20G<218 349 349 349>
VStem: 214 135<1 562 562 562>
LayerCount: 2
Fore
SplineSet
214 1 m 1
 214 562 l 1
 69 480 l 1
 2 576 l 1
 218 701 l 1
 349 701 l 1
 349 1 l 1
 214 1 l 1
EndSplineSet
EndChar

StartChar: two
Encoding: 50 50 18
Width: 600
Flags: W
HStem: 0 122<58 58 223 542> 544 20G<36 36> 600 120<257.5 318.5>
VStem: 386 138<479.5 537>
LayerCount: 2
Fore
SplineSet
58 0 m 1
 58 122 l 1
 298 358 l 2
 352 413 386 451 386 508 c 0
 386 566 346 600 291 600 c 0
 224 600 183 559 146 497 c 1
 36 564 l 1
 95 660 182 720 304 720 c 0
 426 720 524 642 524 522 c 0
 524 426 461 352 392 285 c 2
 223 122 l 1
 542 122 l 1
 542 0 l 1
 58 0 l 1
EndSplineSet
EndChar

StartChar: three
Encoding: 51 51 19
Width: 600
Flags: W
HStem: -20 120<260.5 329 260.5 369> 310 120<175 281 281 290 175 281> 600 120<260 315.5>
VStem: 383 138<499.5 543.5> 414 137<173.5 238>
LayerCount: 2
Fore
SplineSet
551 200 m 0xe8
 551 67 442 -20 296 -20 c 0
 164 -20 79 38 22 138 c 1
 140 211 l 1
 179 134 226 100 295 100 c 0
 363 100 414 141 414 206 c 0xe8
 414 270 364 310 290 310 c 2
 175 310 l 1
 175 430 l 1
 281 430 l 2
 340 430 383 463 383 517 c 0
 383 570 343 600 288 600 c 0
 232 600 194 570 165 520 c 1
 55 588 l 1
 106 671 185 720 298 720 c 0
 426 720 521 647 521 532 c 0xf0
 521 467 493 412 441 376 c 1
 512 340 551 277 551 200 c 0xe8
EndSplineSet
EndChar

StartChar: four
Encoding: 52 52 20
Width: 600
Flags: W
HStem: 0 21G<359 494 359 359> 186 122<36 36 175 359 494 565> 680 20G<336 494 494 494>
VStem: 359 135<0 186 0 186 308 547 547 547>
LayerCount: 2
Fore
SplineSet
36 186 m 1
 36 308 l 1
 336 700 l 1
 494 700 l 1
 494 308 l 1
 565 308 l 1
 565 186 l 1
 494 186 l 1
 494 0 l 1
 359 0 l 1
 359 186 l 1
 36 186 l 1
175 308 m 1
 359 308 l 1
 359 547 l 1
 175 308 l 1
EndSplineSet
EndChar

StartChar: five
Encoding: 53 53 21
Width: 600
Flags: W
HStem: -20 120<264 332.5 264 370> 310 122<232 280> 578 122<240 528 240 240>
VStem: 100.5 135.5 416 138<173.5 239>
LayerCount: 2
Fore
SplineSet
90 310 m 1
 111 700 l 1
 528 700 l 1
 528 578 l 1
 240 578 l 1
 232 432 l 1
 286 432 l 2
 472 432 554 347 554 211 c 0
 554 68 442 -20 298 -20 c 0
 168 -20 82 37 24 138 c 1
 142 211 l 1
 182 134 230 100 298 100 c 0
 367 100 416 141 416 206 c 0
 416 272 367 310 280 310 c 2
 90 310 l 1
EndSplineSet
EndChar

StartChar: six
Encoding: 54 54 22
Width: 600
Flags: W
HStem: -20 122<276.5 349 276.5 395> 329 120<308.5 351.5> 598 122<285.5 363.5>
VStem: 32 140 431 139<184 249.5>
LayerCount: 2
Fore
SplineSet
336 720 m 0
 453 720 526 667 572 606 c 1
 468 520 l 1
 432 568 391 598 336 598 c 0
 235 598 181 525 172 388 c 1
 217 427 274 449 343 449 c 0
 482 449 570 350 570 222 c 0
 570 90 475 -20 315 -20 c 0
 133 -20 32 113 32 347 c 0
 32 565 122 720 336 720 c 0
318 329 m 0
 261 329 212 307 176 260 c 1
 192 146 241 102 312 102 c 0
 386 102 431 151 431 217 c 0
 431 282 385 329 318 329 c 0
EndSplineSet
EndChar

StartChar: seven
Encoding: 55 55 23
Width: 600
Flags: W
HStem: 0 21G<69 225 69 69> 578 122<60 421 60 564 60 564>
VStem: 60 504<578 700 578 700>
LayerCount: 2
Fore
SplineSet
225 0 m 1
 69 0 l 1
 421 578 l 1
 60 578 l 1
 60 700 l 1
 564 700 l 1
 564 578 l 1
 225 0 l 1
EndSplineSet
EndChar

StartChar: eight
Encoding: 56 56 24
Width: 600
Flags: W
HStem: -20 117<261 340.5 261 387> 314 116<271 331 271 340.5> 604 116<270.5 331>
VStem: 32 139<170.5 236 170.5 238.5> 63 139<499 542.5 490 580.5> 398 139<499 542.5> 429 139<171 236>
LayerCount: 2
Fore
SplineSet
300 720 m 0xec
 457 720 537 630 537 531 c 0xf4
 537 467 506 412 445 379 c 1
 525 346 568 281 568 196 c 0
 568 74 474 -20 300 -20 c 0
 127 -20 32 74 32 196 c 0xf2
 32 281 75 346 156 379 c 1
 94 412 63 467 63 531 c 0
 63 630 144 720 300 720 c 0xec
302 430 m 0
 360 430 398 464 398 516 c 0
 398 569 360 604 302 604 c 0
 239 604 202 569 202 516 c 0
 202 464 240 430 302 430 c 0
301 97 m 0xf2
 380 97 429 139 429 203 c 0
 429 269 380 314 301 314 c 0
 221 314 171 269 171 203 c 0
 171 138 221 97 301 97 c 0xf2
EndSplineSet
EndChar

StartChar: nine
Encoding: 57 57 25
Width: 600
Flags: W
HStem: -20 122<234 312.5 234 367.5> 251 120<245.5 288.5> 598 122<248 320>
VStem: 27 139<450.5 516 450.5 544> 425 140
LayerCount: 2
Fore
SplineSet
260 -20 m 0
 144 -20 70 33 25 94 c 1
 129 180 l 1
 165 132 206 102 262 102 c 0
 363 102 416 175 425 313 c 1
 380 273 323 251 254 251 c 0
 115 251 27 350 27 478 c 0
 27 610 122 720 282 720 c 0
 464 720 565 587 565 353 c 0
 565 135 475 -20 260 -20 c 0
166 483 m 0
 166 418 212 371 279 371 c 0
 336 371 387 394 421 440 c 1
 405 554 356 598 284 598 c 0
 212 598 166 549 166 483 c 0
EndSplineSet
EndChar

StartChar: colon
Encoding: 58 58 26
Width: 270
Flags: W
HStem: -12 174<111.5 159.5> 342 174<111.5 159.5>
VStem: 48 176<51 98.5 406 453.5>
LayerCount: 2
Fore
SplineSet
136 342 m 0
 87 342 48 382 48 430 c 0
 48 477 87 516 136 516 c 0
 183 516 224 477 224 430 c 0
 224 382 183 342 136 342 c 0
136 -12 m 0
 87 -12 48 27 48 75 c 0
 48 122 87 162 136 162 c 0
 183 162 224 122 224 75 c 0
 224 27 183 -12 136 -12 c 0
EndSplineSet
EndChar

StartChar: semicolon
Encoding: 59 59 27
Width: 270
Flags: W
HStem: -160 299<76 102 -16 218> 342 174<111.5 159.5>
VStem: 48 176<406 453.5>
LayerCount: 2
Fore
SplineSet
136 342 m 0
 87 342 48 382 48 430 c 0
 48 477 87 516 136 516 c 0
 183 516 224 477 224 430 c 0
 224 382 183 342 136 342 c 0
102 -160 m 1
 -16 -160 l 1
 76 139 l 1
 218 139 l 1
 102 -160 l 1
EndSplineSet
EndChar

StartChar: less
Encoding: 60 60 28
Width: 600
Flags: W
HStem: 0 21G<551 551> 484 20G<551 551>
VStem: 48 503<0 314 0 314>
LayerCount: 2
Fore
SplineSet
551 116 m 1
 551 0 l 1
 48 190 l 1
 48 314 l 1
 551 504 l 1
 551 388 l 1
 177 252 l 1
 551 116 l 1
EndSplineSet
EndChar

StartChar: equal
Encoding: 61 61 29
Width: 600
Flags: W
HStem: 92 108<48 551 48 551> 304 108<48 551 48 551>
VStem: 48 503<92 200 92 200 304 412 92 412>
LayerCount: 2
Fore
SplineSet
551 304 m 1
 48 304 l 1
 48 412 l 1
 551 412 l 1
 551 304 l 1
551 92 m 1
 48 92 l 1
 48 200 l 1
 551 200 l 1
 551 92 l 1
EndSplineSet
EndChar

StartChar: greater
Encoding: 62 62 30
Width: 600
Flags: W
HStem: 0 21G<48 48> 484 20G<48 48>
VStem: 48 503<0 314 116 314 190 504 190 504>
LayerCount: 2
Fore
SplineSet
48 116 m 1
 422 252 l 1
 48 388 l 1
 48 504 l 1
 551 314 l 1
 551 190 l 1
 48 0 l 1
 48 116 l 1
EndSplineSet
EndChar

StartChar: question
Encoding: 63 63 31
Width: 518
Flags: W
HStem: -12 174<198 245> 600 120<231.5 284>
VStem: 134 175<51.5 98.5> 350 138<469.5 538>
LayerCount: 2
Fore
SplineSet
174 225 m 1
 158 390 l 1
 274 402 350 427 350 512 c 0
 350 564 310 600 258 600 c 0
 205 600 172 572 135 517 c 1
 26 584 l 1
 82 673 158 720 264 720 c 0
 382 720 488 639 488 512 c 0
 488 395 399 320 275 299 c 1
 268 225 l 1
 174 225 l 1
222 -12 m 0
 174 -12 134 28 134 75 c 0
 134 122 174 162 222 162 c 0
 268 162 309 122 309 75 c 0
 309 28 268 -12 222 -12 c 0
EndSplineSet
EndChar

StartChar: at
Encoding: 64 64 32
Width: 833
Flags: W
HStem: -119 75<337.5 462 337.5 471.5> 67 79<623 654.5 623 678> 67 91<388 422> 342 78<388 596> 342 92<388 414.5 341.5 432> 546 75<335 503>
VStem: 43 85<170.5 331 170.5 351> 225 105<223.5 277 223.5 300> 499 97<209 291 291 291 394 420> 707 83<245 358.5>
LayerCount: 2
Fore
SplineSet
225 250 m 0xcfc0
 225 350 289 434 394 434 c 0
 435 434 470 420 499 394 c 1xcfc0
 499 420 l 1
 596 420 l 1
 596 187 l 2
 596 161 612 146 634 146 c 0
 675 146 707 202 707 288 c 0
 707 429 586 546 420 546 c 0
 250 546 128 411 128 251 c 0
 128 90 251 -44 424 -44 c 0
 500 -44 560 -29 632 30 c 1
 677 -40 l 1
 600 -97 520 -119 423 -119 c 0
 196 -119 43 51 43 251 c 0
 43 451 195 621 420 621 c 0
 640 621 790 470 790 288 c 0
 790 162 730 67 626 67 c 0xd7c0
 572 67 536 91 518 125 c 1
 488 88 450 67 394 67 c 0xafc0
 289 67 225 151 225 250 c 0xcfc0
330 250 m 0xafc0
 330 197 362 158 414 158 c 0
 451 158 477 177 499 209 c 1
 499 291 l 1
 476 324 450 342 414 342 c 0
 362 342 330 304 330 250 c 0xafc0
EndSplineSet
EndChar

StartChar: A
Encoding: 65 65 33
Width: 746
Flags: W
HStem: 0 21G<15 15 15 166 580 580 580 731> 182 121<277 469 277 513 233 469> 566 134<373 373> 680 20G<280 466 466 466>
VStem: 15 716<0 0>
LayerCount: 2
Fore
SplineSet
15 0 m 1xd8
 280 700 l 1
 466 700 l 1
 731 0 l 1
 580 0 l 1
 513 182 l 1
 233 182 l 1
 166 0 l 1
 15 0 l 1xd8
277 303 m 1
 469 303 l 1
 373 566 l 1xe8
 277 303 l 1
EndSplineSet
EndChar

StartChar: B
Encoding: 66 66 34
Width: 637
Flags: W
HStem: 0 118<245 324> 306 118<245 312 312 332 245 312> 582 118<245 309 309 312 245 245>
VStem: 103 142<118 306 424 582> 398 146<481.5 528.5> 438 146<182.5 242>
LayerCount: 2
Fore
SplineSet
103 0 m 1xf4
 103 700 l 1
 309 700 l 2
 455 700 544 628 544 510 c 0xf8
 544 453 518 404 469 372 c 1
 543 339 584 279 584 206 c 0
 584 78 485 0 324 0 c 2
 103 0 l 1xf4
312 582 m 2
 245 582 l 1
 245 424 l 1
 312 424 l 2
 366 424 398 453 398 504 c 0
 398 553 366 582 312 582 c 2
332 306 m 2
 245 306 l 1
 245 118 l 1
 332 118 l 2
 398 118 438 153 438 212 c 0xf4
 438 272 398 306 332 306 c 2
EndSplineSet
EndChar

StartChar: C
Encoding: 67 67 35
Width: 740
Flags: W
HStem: -20 133<349 455 349 478.5> 587 133<349 455>
VStem: 43 146<283 417 283 450>
LayerCount: 2
Fore
SplineSet
415 113 m 0
 495 113 558 152 598 209 c 1
 710 123 l 1
 646 36 542 -20 415 -20 c 0
 194 -20 43 150 43 350 c 0
 43 550 194 720 415 720 c 0
 542 720 646 663 710 578 c 1
 598 491 l 1
 558 548 495 587 415 587 c 0
 283 587 189 484 189 350 c 0
 189 216 283 113 415 113 c 0
EndSplineSet
EndChar

StartChar: D
Encoding: 68 68 36
Width: 794
Flags: W
HStem: 0 129<245 378> 571 129<245 378 378 380 245 245>
VStem: 103 142<129 571 129 700 129 700> 604 146<288 412.5>
LayerCount: 2
Fore
SplineSet
103 0 m 1
 103 700 l 1
 378 700 l 2
 600 700 750 539 750 350 c 0
 750 161 600 0 378 0 c 2
 103 0 l 1
380 571 m 2
 245 571 l 1
 245 129 l 1
 380 129 l 2
 510 129 604 226 604 350 c 0
 604 475 510 571 380 571 c 2
EndSplineSet
EndChar

StartChar: E
Encoding: 69 69 37
Width: 583
Flags: W
HStem: 0 118<245 511 245 511> 298 118<245 471 245 471> 582 118<245 511 245 245>
VStem: 103 142<118 298 416 582>
LayerCount: 2
Fore
SplineSet
103 0 m 1
 103 700 l 1
 511 700 l 1
 511 582 l 1
 245 582 l 1
 245 416 l 1
 471 416 l 1
 471 298 l 1
 245 298 l 1
 245 118 l 1
 511 118 l 1
 511 0 l 1
 103 0 l 1
EndSplineSet
EndChar

StartChar: F
Encoding: 70 70 38
Width: 543
Flags: W
HStem: 0 21G<103 103 103 245> 298 118<245 471 245 471> 582 118<245 511 245 245>
VStem: 103 142<0 298 416 582>
LayerCount: 2
Fore
SplineSet
103 0 m 1
 103 700 l 1
 511 700 l 1
 511 582 l 1
 245 582 l 1
 245 416 l 1
 471 416 l 1
 471 298 l 1
 245 298 l 1
 245 0 l 1
 103 0 l 1
EndSplineSet
EndChar

StartChar: G
Encoding: 71 71 39
Width: 795
Flags: W
HStem: -20 133<356.5 458 356.5 490.5> 296 121<410 588 410 730> 587 133<349 455>
VStem: 43 146<283 417 283 450> 588 142<174 296 296 296>
LayerCount: 2
Fore
SplineSet
425 113 m 0
 491 113 548 136 588 174 c 1
 588 296 l 1
 410 296 l 1
 410 417 l 1
 730 417 l 1
 730 123 l 1
 665 36 556 -20 425 -20 c 0
 198 -20 43 150 43 350 c 0
 43 550 194 720 415 720 c 0
 542 720 646 663 710 578 c 1
 598 491 l 1
 558 548 495 587 415 587 c 0
 283 587 189 484 189 350 c 0
 189 216 288 113 425 113 c 0
EndSplineSet
EndChar

StartChar: H
Encoding: 72 72 40
Width: 843
Flags: W
HStem: 0 21G<103 103 103 245 598 598 598 740> 292 129<245 598 245 598> 680 20G<103 245 245 245 598 740 740 740>
VStem: 103 142<0 292 421 700> 598 142<0 292 292 292 421 700 0 700>
LayerCount: 2
Fore
SplineSet
103 0 m 1
 103 700 l 1
 245 700 l 1
 245 421 l 1
 598 421 l 1
 598 700 l 1
 740 700 l 1
 740 0 l 1
 598 0 l 1
 598 292 l 1
 245 292 l 1
 245 0 l 1
 103 0 l 1
EndSplineSet
EndChar

StartChar: I
Encoding: 73 73 41
Width: 348
Flags: W
HStem: 0 21G<103 103 103 245> 680 20G<103 245 245 245>
VStem: 103 142<0 700 0 700>
LayerCount: 2
Fore
SplineSet
103 0 m 1
 103 700 l 1
 245 700 l 1
 245 0 l 1
 103 0 l 1
EndSplineSet
EndChar

StartChar: J
Encoding: 74 74 42
Width: 359
Flags: W
HStem: -174 126<26.5 49.5 11 111> 680 20G<114 256 256 256>
VStem: 114 142<51 58 58 700>
LayerCount: 2
Fore
SplineSet
256 58 m 2
 256 -97 184 -174 38 -174 c 0
 15 -174 -4 -174 -18 -170 c 1
 -18 -45 l 1
 -8 -47 4 -48 18 -48 c 0
 81 -48 114 -21 114 51 c 2
 114 700 l 1
 256 700 l 1
 256 58 l 2
EndSplineSet
EndChar

StartChar: K
Encoding: 75 75 43
Width: 748
Flags: W
HStem: 0 21G<103 103 103 245 550 550 550 724> 680 20G<103 245 245 245 547 724 724 724>
VStem: 103 142<0 217 394 700>
LayerCount: 2
Fore
SplineSet
103 0 m 1
 103 700 l 1
 245 700 l 1
 245 394 l 1
 547 700 l 1
 724 700 l 1
 431 404 l 1
 724 0 l 1
 550 0 l 1
 333 306 l 1
 245 217 l 1
 245 0 l 1
 103 0 l 1
EndSplineSet
EndChar

StartChar: L
Encoding: 76 76 44
Width: 543
Flags: W
HStem: 0 129<245 511 245 511> 680 20G<103 245 245 245>
VStem: 103 142<129 700 129 700 129 700>
LayerCount: 2
Fore
SplineSet
103 0 m 1
 103 700 l 1
 245 700 l 1
 245 129 l 1
 511 129 l 1
 511 0 l 1
 103 0 l 1
EndSplineSet
EndChar

StartChar: M
Encoding: 77 77 45
Width: 901
Flags: W
HStem: 0 21G<103 103 103 245 657 657 657 799> 502 198<245 245 657 657> 680 20G<103 280 280 280 622 799 799 799>
VStem: 103 142<0 502 0 700> 657 142<0 502 502 502>
LayerCount: 2
Fore
SplineSet
103 0 m 1xb8
 103 700 l 1
 280 700 l 1
 451 406 l 1
 622 700 l 1
 799 700 l 1
 799 0 l 1
 657 0 l 1
 657 502 l 1
 501 240 l 1
 401 240 l 1
 245 502 l 1xd8
 245 0 l 1
 103 0 l 1xb8
EndSplineSet
EndChar

StartChar: N
Encoding: 78 78 46
Width: 843
Flags: W
HStem: 0 21G<103 103 103 245 558 558 558 740> 680 20G<103 285 285 285 598 740 740 740>
VStem: 103 142<0 506 0 700> 598 142<194 700 0 700>
LayerCount: 2
Fore
SplineSet
103 0 m 1
 103 700 l 1
 285 700 l 1
 598 194 l 1
 598 700 l 1
 740 700 l 1
 740 0 l 1
 558 0 l 1
 245 506 l 1
 245 0 l 1
 103 0 l 1
EndSplineSet
EndChar

StartChar: O
Encoding: 79 79 47
Width: 829
Flags: W
HStem: -20 133<349 480.5 349 525> 587 133<349 480.5>
VStem: 43 146<283 417 283 450> 640 146<283 417>
LayerCount: 2
Fore
SplineSet
415 720 m 0
 635 720 786 550 786 350 c 0
 786 150 635 -20 415 -20 c 0
 194 -20 43 150 43 350 c 0
 43 550 194 720 415 720 c 0
415 113 m 0
 546 113 640 216 640 350 c 0
 640 484 546 587 415 587 c 0
 283 587 189 484 189 350 c 0
 189 216 283 113 415 113 c 0
EndSplineSet
EndChar

StartChar: P
Encoding: 80 80 48
Width: 606
Flags: W
HStem: 0 21G<103 103 103 245> 283 118<245 334 245 340> 582 118<245 334 334 340 245 245>
VStem: 103 142<0 283 0 401 401 582> 436 146<464.5 519.5>
LayerCount: 2
Fore
SplineSet
103 0 m 1
 103 700 l 1
 334 700 l 2
 488 700 582 621 582 491 c 0
 582 362 488 283 334 283 c 2
 245 283 l 1
 245 0 l 1
 103 0 l 1
340 582 m 2
 245 582 l 1
 245 401 l 1
 340 401 l 2
 400 401 436 436 436 493 c 0
 436 546 400 582 340 582 c 2
EndSplineSet
EndChar

StartChar: Q
Encoding: 81 81 49
Width: 829
Flags: W
HStem: -174 125<814.5 828.5> -20 133<349 432> 587 133<349 480.5>
VStem: 43 146<283 417 283 450> 640 146<291.5 417>
LayerCount: 2
Fore
SplineSet
690 18 m 2
 744 -31 792 -49 837 -49 c 0
 852 -49 872 -47 887 -41 c 1
 887 -161 l 1
 864 -170 844 -174 813 -174 c 0
 735 -174 663 -142 594 -82 c 2xf8
 511 -8 l 1
 481 -16 449 -20 415 -20 c 0x78
 194 -20 43 150 43 350 c 0
 43 550 194 720 415 720 c 0
 635 720 786 550 786 350 c 0
 786 233 734 126 648 58 c 1
 690 18 l 2
415 113 m 0x78
 546 113 640 216 640 350 c 0
 640 484 546 587 415 587 c 0
 283 587 189 484 189 350 c 0
 189 216 283 113 415 113 c 0x78
EndSplineSet
EndChar

StartChar: R
Encoding: 82 82 50
Width: 669
Flags: W
HStem: 0 21G<103 103 103 245 505 505 505 672> 283 118<245 318 245 325> 582 118<245 317 317 325 245 245>
VStem: 103 142<0 283 0 401 401 582> 420 146<464.5 519.5>
LayerCount: 2
Fore
SplineSet
103 0 m 1
 103 700 l 1
 317 700 l 2
 471 700 566 621 566 491 c 0
 566 406 525 343 453 310 c 1
 672 0 l 1
 505 0 l 1
 318 283 l 1
 245 283 l 1
 245 0 l 1
 103 0 l 1
325 582 m 2
 245 582 l 1
 245 401 l 1
 325 401 l 2
 385 401 420 436 420 493 c 0
 420 546 385 582 325 582 c 2
EndSplineSet
EndChar

StartChar: S
Encoding: 83 83 51
Width: 588
Flags: W
HStem: -20 126<269.5 326 269.5 363.5> 596 124<272 323.5>
VStem: 70 144<458.5 543 458.5 572.5> 388 144<191 250.5>
LayerCount: 2
Fore
SplineSet
40 97 m 1
 143 192 l 1
 185 138 241 106 298 106 c 0
 354 106 388 136 388 186 c 0
 388 315 70 280 70 517 c 0
 70 628 162 720 296 720 c 0
 401 720 481 673 541 602 c 1
 437 508 l 1
 396 561 350 596 297 596 c 0
 247 596 214 564 214 522 c 0
 214 395 532 431 532 191 c 0
 530 59 428 -20 299 -20 c 0
 181 -20 102 23 40 97 c 1
EndSplineSet
EndChar

StartChar: T
Encoding: 84 84 52
Width: 637
Flags: W
HStem: 0 21G<247 389 247 247> 571 129<31 605 31 247 389 389 389 605>
VStem: 247 142<0 571 0 571>
LayerCount: 2
Fore
SplineSet
31 571 m 1
 31 700 l 1
 605 700 l 1
 605 571 l 1
 389 571 l 1
 389 0 l 1
 247 0 l 1
 247 571 l 1
 31 571 l 1
EndSplineSet
EndChar

StartChar: U
Encoding: 85 85 53
Width: 733
Flags: W
HStem: -20 133<322.5 410.5 322.5 454> 680 20G<83 225 225 225 508 650 650 650>
VStem: 83 142<274 700> 508 142<262 274 274 700>
LayerCount: 2
Fore
SplineSet
508 262 m 2
 508 700 l 1
 650 700 l 1
 650 274 l 2
 650 90 542 -20 366 -20 c 0
 191 -20 83 90 83 274 c 2
 83 700 l 1
 225 700 l 1
 225 262 l 2
 225 168 278 113 367 113 c 0
 454 113 508 168 508 262 c 2
EndSplineSet
EndChar

StartChar: V
Encoding: 86 86 54
Width: 746
Flags: W
HStem: 0 21G<280 466 280 280> 0 153<373 373 373 466 280 373> 680 20G<15 166 166 166 580 731 731 731>
VStem: 15 716<700 700>
LayerCount: 2
Fore
SplineSet
15 700 m 1xb0
 166 700 l 1
 373 153 l 1x70
 580 700 l 1
 731 700 l 1
 466 0 l 1
 280 0 l 1
 15 700 l 1xb0
EndSplineSet
EndChar

StartChar: W
Encoding: 87 87 55
Width: 1072
Flags: W
HStem: 0 21G<199 388 199 199 684 874 684 684> 0 165<297 297 297 388 199 297> 541 159<536 536> 680 20G<26 165 165 165 443 630 630 630 908 1047 1047 1047>
VStem: 26 1021<700 700>
LayerCount: 2
Fore
SplineSet
26 700 m 1x98
 165 700 l 1
 297 165 l 1
 443 700 l 1
 630 700 l 1
 775 165 l 1x58
 908 700 l 1
 1047 700 l 1
 874 0 l 1
 684 0 l 1
 536 541 l 1xa8
 388 0 l 1
 199 0 l 1
 26 700 l 1x98
EndSplineSet
EndChar

StartChar: X
Encoding: 88 88 56
Width: 741
Flags: W
HStem: 0 21G<21 190 21 21 551 551 551 720> 680 20G<38 206 206 206 534 704 704 704>
VStem: 21 699<0 0>
LayerCount: 2
Fore
SplineSet
190 0 m 1
 21 0 l 1
 271 362 l 1
 38 700 l 1
 206 700 l 1
 370 464 l 1
 534 700 l 1
 704 700 l 1
 469 362 l 1
 720 0 l 1
 551 0 l 1
 370 260 l 1
 190 0 l 1
EndSplineSet
EndChar

StartChar: Y
Encoding: 89 89 57
Width: 710
Flags: W
HStem: 0 21G<284 426 284 284> 680 20G<-5 168 168 168 542 714 714 714>
VStem: 284 142<0 295 295 295>
LayerCount: 2
Fore
SplineSet
714 700 m 1
 426 298 l 1
 426 0 l 1
 284 0 l 1
 284 295 l 1
 -5 700 l 1
 168 700 l 1
 355 436 l 1
 542 700 l 1
 714 700 l 1
EndSplineSet
EndChar

StartChar: Z
Encoding: 90 90 58
Width: 695
Flags: W
HStem: 0 129<60 60 235 634> 571 129<70 450 70 624 70 624>
VStem: 60 574<0 129 0 129>
LayerCount: 2
Fore
SplineSet
60 0 m 1
 60 129 l 1
 450 571 l 1
 70 571 l 1
 70 700 l 1
 624 700 l 1
 624 571 l 1
 235 129 l 1
 634 129 l 1
 634 0 l 1
 60 0 l 1
EndSplineSet
EndChar

StartChar: bracketleft
Encoding: 91 91 59
Width: 332
Flags: W
HStem: -197 108<189 314 189 314> 642 108<189 314 189 189>
VStem: 70 119<-89 642 -89 750 -89 750> 70 244<-197 -89 642 750>
LayerCount: 2
Fore
SplineSet
70 750 m 1xe0
 314 750 l 1
 314 642 l 1xd0
 189 642 l 1
 189 -89 l 1xe0
 314 -89 l 1
 314 -197 l 1xd0
 70 -197 l 1
 70 750 l 1xe0
EndSplineSet
EndChar

StartChar: backslash
Encoding: 92 92 60
Width: 377
Flags: W
HStem: 730 20G<11 140 140 140>
VStem: 11 355
LayerCount: 2
Fore
SplineSet
366 -197 m 1
 237 -197 l 1
 11 750 l 1
 140 750 l 1
 366 -197 l 1
EndSplineSet
EndChar

StartChar: bracketright
Encoding: 93 93 61
Width: 332
Flags: W
HStem: -197 108<19 144 19 264 19 144> 642 108<19 144 19 264>
VStem: 19 245<-197 -89 -89 -89 642 750> 144 120<-89 642 642 642>
LayerCount: 2
Fore
SplineSet
264 -197 m 1xd0
 19 -197 l 1
 19 -89 l 1xe0
 144 -89 l 1
 144 642 l 1xd0
 19 642 l 1
 19 750 l 1xe0
 264 750 l 1
 264 -197 l 1xd0
EndSplineSet
EndChar

StartChar: asciicircum
Encoding: 94 94 62
Width: 600
Flags: W
HStem: 154 226<86 381 86 381 219 402 219 514> 316 64<300 300>
VStem: 86 428<154 154>
LayerCount: 2
Fore
SplineSet
198 154 m 1xa0
 86 154 l 1
 219 380 l 1
 381 380 l 1
 514 154 l 1
 402 154 l 1xa0
 300 316 l 1x60
 198 154 l 1xa0
EndSplineSet
EndChar

StartChar: underscore
Encoding: 95 95 63
Width: 540
Flags: W
HStem: -187 108<5 535 5 535>
VStem: 5 530<-187 -79 -187 -79>
LayerCount: 2
Fore
SplineSet
5 -79 m 1
 535 -79 l 1
 535 -187 l 1
 5 -187 l 1
 5 -79 l 1
EndSplineSet
EndChar

StartChar: grave
Encoding: 96 96 64
Width: 600
Flags: W
HStem: 584 166<299 299 299 317 179 420>
VStem: 179 241<584 750>
LayerCount: 2
Fore
SplineSet
299 584 m 1
 179 750 l 1
 317 750 l 1
 420 584 l 1
 299 584 l 1
EndSplineSet
EndChar

StartChar: a
Encoding: 97 97 65
Width: 565
Flags: W
HStem: -15 101<222.5 247.5> 0 21G<369 496 369 369> 413 111<246.5 300>
VStem: 48 126<125 157.5 125 174> 369 127<0 49 49 49 153 224 224 224 313 326 0 352.5>
LayerCount: 2
Fore
SplineSet
218 -15 m 0xb8
 117 -15 48 43 48 136 c 0
 48 212 107 269 215 287 c 2
 369 313 l 1
 369 326 l 2
 369 379 329 413 271 413 c 0
 222 413 184 390 157 353 c 1
 64 424 l 1
 109 486 183 524 275 524 c 0
 421 524 496 437 496 326 c 2
 496 0 l 1
 369 0 l 1x78
 369 49 l 1
 337 10 277 -15 218 -15 c 0xb8
174 142 m 0
 174 108 201 86 244 86 c 0
 302 86 344 113 369 153 c 1
 369 224 l 1
 249 204 l 2
 196 195 174 173 174 142 c 0
EndSplineSet
EndChar

StartChar: b
Encoding: 98 98 66
Width: 656
Flags: W
HStem: -20 120<325.5 385 313.5 440> 0 21G<76 203 76 76> 404 120<325.5 385> 730 20G<76 203 203 203>
VStem: 76 127<0 41 172 332 463 750> 484 132<208 296>
LayerCount: 2
Fore
SplineSet
616 252 m 0xbc
 616 105 520 -20 360 -20 c 0
 291 -20 242 2 203 41 c 1xbc
 203 0 l 1
 76 0 l 1x7c
 76 750 l 1
 203 750 l 1
 203 463 l 1
 242 502 291 524 360 524 c 0
 520 524 616 399 616 252 c 0xbc
342 404 m 0
 283 404 234 378 203 332 c 1
 203 172 l 1
 237 125 285 100 342 100 c 0
 428 100 484 164 484 252 c 0
 484 340 428 404 342 404 c 0
EndSplineSet
EndChar

StartChar: c
Encoding: 99 99 67
Width: 550
Flags: W
HStem: -20 120<275.5 343 275.5 364> 404 120<274.5 342>
VStem: 40 132<207.5 296 207.5 325.5>
LayerCount: 2
Fore
SplineSet
318 100 m 0
 368 100 408 123 432 158 c 1
 531 82 l 1
 484 20 410 -20 318 -20 c 0
 144 -20 40 105 40 252 c 0
 40 399 144 524 318 524 c 0
 410 524 484 484 531 422 c 1
 432 346 l 1
 408 381 368 404 316 404 c 0
 233 404 172 340 172 252 c 0
 172 163 233 100 318 100 c 0
EndSplineSet
EndChar

StartChar: d
Encoding: 100 100 68
Width: 656
Flags: W
HStem: -20 120<271 330> 0 21G<452 580 452 452> 404 120<271 330 216.5 342.5> 730 20G<452 580 580 580>
VStem: 40 133<208 296 208 325.5> 452 128<0 40 40 40 170 334 334 334 464 750 0 750>
LayerCount: 2
Fore
SplineSet
40 252 m 0xbc
 40 399 137 524 296 524 c 0
 364 524 413 503 452 464 c 1
 452 750 l 1
 580 750 l 1
 580 0 l 1
 452 0 l 1x7c
 452 40 l 1
 413 1 364 -20 296 -20 c 0
 137 -20 40 105 40 252 c 0xbc
173 252 m 0
 173 164 228 100 314 100 c 0
 371 100 418 124 452 170 c 1
 452 334 l 1
 418 380 371 404 314 404 c 0
 228 404 173 340 173 252 c 0
EndSplineSet
EndChar

StartChar: e
Encoding: 101 101 69
Width: 579
Flags: W
HStem: -20 114<279.5 346.5 279.5 367.5> 226 92<174 406 174 523 170 406> 420 104<263.5 331.5>
VStem: 406 125<318 318>
LayerCount: 2
Fore
SplineSet
540 82 m 1
 493 19 415 -20 320 -20 c 0
 141 -20 40 105 40 252 c 0
 40 401 134 524 299 524 c 0
 439 524 531 429 531 297 c 0
 531 269 527 243 523 226 c 1
 170 226 l 1
 182 132 240 94 319 94 c 0
 374 94 422 118 449 154 c 1
 540 82 l 1
296 420 m 0
 231 420 188 384 174 318 c 1
 406 318 l 1
 404 369 367 420 296 420 c 0
EndSplineSet
EndChar

StartChar: f
Encoding: 102 102 70
Width: 406
Flags: W
HStem: 0 21G<108 236 108 108> 390 114<14 108 14 108 236 390> 636 114<285.5 320>
VStem: 108 128<0 390 0 390 504 557 557 560>
LayerCount: 2
Fore
SplineSet
14 504 m 1
 108 504 l 1
 108 557 l 2
 108 664 179 750 305 750 c 0
 351 750 390 739 422 722 c 1
 368 616 l 1
 353 627 333 636 307 636 c 0
 264 636 236 606 236 560 c 2
 236 504 l 1
 390 504 l 1
 390 390 l 1
 236 390 l 1
 236 0 l 1
 108 0 l 1
 108 390 l 1
 14 390 l 1
 14 504 l 1
EndSplineSet
EndChar

StartChar: g
Encoding: 103 103 71
Width: 558
Flags: W
HStem: -250 102<236.5 327 236.5 360.5> 1 109<223 336 180 350> 168 96<245.5 282.5 228.5 319> 396 108<451 540 451 451> 429 95<228.5 273.5 191 282.5>
VStem: 26 120<-94 -63> 52 116<322 371.5 322 396> 65 124<95 145.5> 343 115<322 355.5 297.5 372> 420 126<-89 -45>
LayerCount: 2
Fore
SplineSet
26 -88 m 0xf440
 26 -38 51 2 96 35 c 1
 76 55 65 82 65 108 c 0xf140
 65 148 82 180 120 208 c 1
 76 241 52 291 52 347 c 0
 52 445 128 524 254 524 c 0xea40
 293 524 327 517 356 504 c 1
 540 504 l 1
 540 396 l 1
 451 396 l 1
 456 380 458 364 458 347 c 0
 458 248 384 168 254 168 c 0
 237 168 221 169 206 172 c 1
 195 162 189 151 189 140 c 0
 189 120 200 110 223 110 c 2xf180
 350 110 l 2
 477 110 546 42 546 -52 c 0
 546 -164 439 -250 282 -250 c 0
 121 -250 26 -194 26 -88 c 0xf440
256 264 m 0xea80
 309 264 343 297 343 347 c 0
 343 397 309 429 256 429 c 0
 201 429 168 396 168 347 c 0
 168 297 201 264 256 264 c 0xea80
146 -70 m 0xf440
 146 -118 192 -148 281 -148 c 0
 373 -148 420 -114 420 -64 c 0
 420 -26 397 1 336 1 c 2
 180 1 l 1
 161 -17 146 -39 146 -70 c 0xf440
EndSplineSet
EndChar

StartChar: h
Encoding: 104 104 72
Width: 616
Flags: W
HStem: 0 21G<76 76 76 203 420 420 420 548> 404 120<318.5 351.5> 730 20G<76 203 203 203>
VStem: 76 127<0 329 464 750> 420 128<0 295 295 300 0 328.5>
LayerCount: 2
Fore
SplineSet
76 0 m 1
 76 750 l 1
 203 750 l 1
 203 464 l 1
 238 498 285 524 352 524 c 0
 461 524 548 449 548 300 c 2
 548 0 l 1
 420 0 l 1
 420 295 l 2
 420 362 383 404 320 404 c 0
 256 404 222 361 203 329 c 1
 203 0 l 1
 76 0 l 1
EndSplineSet
EndChar

StartChar: i
Encoding: 105 105 73
Width: 279
Flags: W
HStem: 0 21G<76 76 76 203> 484 20G<76 203 203 203> 592 166<117.5 162.5>
VStem: 57 165<652.5 697.5> 76 127<0 504 0 504>
LayerCount: 2
Fore
SplineSet
140 592 m 0xf0
 95 592 57 630 57 675 c 0
 57 720 95 758 140 758 c 0
 185 758 222 720 222 675 c 0
 222 630 185 592 140 592 c 0xf0
76 0 m 1xe8
 76 504 l 1
 203 504 l 1
 203 0 l 1
 76 0 l 1xe8
EndSplineSet
EndChar

StartChar: j
Encoding: 106 106 74
Width: 279
Flags: W
HStem: -250 116<-4 21 -21.5 80.5> 484 20G<76 203 203 203> 592 166<115.5 160>
VStem: 55 165<652.5 697.5> 76 127<-54 504>
LayerCount: 2
Fore
SplineSet
138 592 m 0xf0
 93 592 55 630 55 675 c 0
 55 720 93 758 138 758 c 0
 182 758 220 720 220 675 c 0
 220 630 182 592 138 592 c 0xf0
203 -54 m 2xe8
 203 -180 144 -250 17 -250 c 0
 -25 -250 -54 -245 -79 -234 c 1
 -79 -123 l 1
 -63 -130 -39 -134 -4 -134 c 0
 46 -134 76 -112 76 -54 c 2
 76 504 l 1
 203 504 l 1
 203 -54 l 2xe8
EndSplineSet
EndChar

StartChar: k
Encoding: 107 107 75
Width: 557
Flags: W
HStem: 0 21G<78 78 78 206 393 393 393 549> 484 20G<391 550 550 550> 730 20G<78 206 206 206>
VStem: 78 128<0 150 311 750>
LayerCount: 2
Fore
SplineSet
78 0 m 1
 78 750 l 1
 206 750 l 1
 206 311 l 1
 391 504 l 1
 550 504 l 1
 343 290 l 1
 549 0 l 1
 393 0 l 1
 253 198 l 1
 206 150 l 1
 206 0 l 1
 78 0 l 1
EndSplineSet
EndChar

StartChar: l
Encoding: 108 108 76
Width: 279
Flags: W
HStem: 0 21G<76 76 76 203> 730 20G<76 203 203 203>
VStem: 76 127<0 750 0 750>
LayerCount: 2
Fore
SplineSet
76 0 m 1
 76 750 l 1
 203 750 l 1
 203 0 l 1
 76 0 l 1
EndSplineSet
EndChar

StartChar: m
Encoding: 109 109 77
Width: 919
Flags: W
HStem: 0 21G<76 76 76 203 400 400 400 528 722 722 722 850> 404 100<76 338.5> 404 120<311 338.5 621.5 660.5>
VStem: 76 127<0 329 466 504> 400 128<0 305 305 310 0 335.5> 722 128<0 305 305 310 0 335.5>
LayerCount: 2
Fore
SplineSet
76 0 m 1xbc
 76 504 l 1
 203 504 l 1xdc
 203 466 l 1
 237 499 280 524 342 524 c 0
 406 524 462 496 495 442 c 1
 531 486 579 524 664 524 c 0
 768 524 850 452 850 310 c 2
 850 0 l 1
 722 0 l 1
 722 305 l 2
 722 366 689 404 632 404 c 0
 577 404 547 366 527 332 c 1
 528 325 528 318 528 310 c 2
 528 0 l 1
 400 0 l 1
 400 305 l 2
 400 366 367 404 310 404 c 0
 252 404 222 361 203 329 c 1
 203 0 l 1
 76 0 l 1xbc
EndSplineSet
EndChar

StartChar: n
Encoding: 110 110 78
Width: 616
Flags: W
HStem: 0 21G<76 76 76 203 420 420 420 548> 404 100<76 351> 404 120<318.5 351>
VStem: 76 127<0 329 464 504> 420 128<0 295 295 300 0 328.5>
LayerCount: 2
Fore
SplineSet
76 0 m 1xb8
 76 504 l 1
 203 504 l 1xd8
 203 464 l 1
 238 498 285 524 352 524 c 0
 461 524 548 449 548 300 c 2
 548 0 l 1
 420 0 l 1
 420 295 l 2
 420 362 382 404 320 404 c 0
 256 404 222 361 203 329 c 1
 203 0 l 1
 76 0 l 1xb8
EndSplineSet
EndChar

StartChar: o
Encoding: 111 111 79
Width: 632
Flags: W
HStem: -20 120<276 358.5 276 398> 404 120<276 358.5>
VStem: 40 132<208 296 208 327.5> 460 132<208.5 296>
LayerCount: 2
Fore
SplineSet
316 524 m 0
 480 524 592 403 592 252 c 0
 592 101 480 -20 316 -20 c 0
 152 -20 40 101 40 252 c 0
 40 403 152 524 316 524 c 0
318 100 m 0
 399 100 460 165 460 252 c 0
 460 340 399 404 318 404 c 0
 234 404 172 340 172 252 c 0
 172 164 234 100 318 100 c 0
EndSplineSet
EndChar

StartChar: p
Encoding: 112 112 80
Width: 656
Flags: W
HStem: -246 21G<76 76 76 203> -20 120<325.5 385 313 440> 404 120<325.5 385> 484 20G<76 203 203 203>
VStem: 76 127<-246 41 173 331 463 504> 484 132<208 296>
LayerCount: 2
Fore
SplineSet
76 -246 m 1xec
 76 504 l 1
 203 504 l 1xdc
 203 463 l 1
 242 502 291 524 360 524 c 0
 520 524 616 399 616 252 c 0
 616 105 520 -20 360 -20 c 0
 291 -20 242 2 203 41 c 1
 203 -246 l 1
 76 -246 l 1xec
342 404 m 0xec
 283 404 235 378 203 331 c 1
 203 173 l 1
 237 125 284 100 342 100 c 0
 428 100 484 164 484 252 c 0
 484 340 428 404 342 404 c 0xec
EndSplineSet
EndChar

StartChar: q
Encoding: 113 113 81
Width: 656
Flags: W
HStem: -246 21G<452 580 452 452> -20 120<270 330> 404 120<270 330 216 341.5> 484 20G<452 580 580 580>
VStem: 40 132<208 296 208 325.5> 452 128<-246 41 41 41 172 332 332 332 463 504 -246 504>
LayerCount: 2
Fore
SplineSet
40 252 m 0xec
 40 399 136 524 296 524 c 0
 364 524 413 502 452 463 c 1xec
 452 504 l 1
 580 504 l 1xdc
 580 -246 l 1
 452 -246 l 1
 452 41 l 1
 413 2 364 -20 296 -20 c 0
 136 -20 40 105 40 252 c 0xec
172 252 m 0
 172 164 227 100 313 100 c 0
 372 100 421 126 452 172 c 1
 452 332 l 1
 418 379 370 404 313 404 c 0
 227 404 172 340 172 252 c 0
EndSplineSet
EndChar

StartChar: r
Encoding: 114 114 82
Width: 406
Flags: W
HStem: 0 21G<76 76 76 203> 389 125<307.5 335.5> 484 20G<76 203 203 203> 487 20G<380 380>
VStem: 76 127<0 323 454 504>
LayerCount: 2
Fore
SplineSet
76 0 m 1x98
 76 504 l 1
 203 504 l 1xa8
 203 454 l 1
 236 488 279 514 336 514 c 0xc8
 353 514 368 511 380 507 c 1x98
 380 382 l 1
 364 386 347 389 324 389 c 0
 262 389 222 355 203 323 c 1xc8
 203 0 l 1
 76 0 l 1x98
EndSplineSet
EndChar

StartChar: s
Encoding: 115 115 83
Width: 457
Flags: W
HStem: -20 102<208 252.5 208 281.5> 422 102<214 253.5>
VStem: 53 122<331 387 331 412.5> 294 122<144 180>
LayerCount: 2
Fore
SplineSet
32 73 m 1
 116 149 l 1
 147 110 184 82 232 82 c 0
 273 82 294 106 294 136 c 0
 294 224 53 191 53 368 c 0
 53 457 128 524 233 524 c 0
 310 524 380 487 416 438 c 1
 332 364 l 1
 306 396 273 422 234 422 c 0
 194 422 175 400 175 374 c 0
 175 288 416 318 416 144 c 0
 414 38 329 -20 234 -20 c 0
 144 -20 80 16 32 73 c 1
EndSplineSet
EndChar

StartChar: t
Encoding: 116 116 84
Width: 428
Flags: W
HStem: -10 116<291 315> 390 114<14 108 14 108 236 390>
VStem: 108 128<184 390 504 630>
LayerCount: 2
Fore
SplineSet
108 184 m 2
 108 390 l 1
 14 390 l 1
 14 504 l 1
 108 504 l 1
 108 630 l 1
 236 630 l 1
 236 504 l 1
 390 504 l 1
 390 390 l 1
 236 390 l 1
 236 184 l 2
 236 128 266 106 316 106 c 0
 351 106 374 110 391 117 c 1
 391 6 l 1
 366 -5 336 -10 294 -10 c 0
 168 -10 108 61 108 184 c 2
EndSplineSet
EndChar

StartChar: u
Encoding: 117 117 85
Width: 601
Flags: W
HStem: -20 120<266 335.5 266 374> 484 20G<65 193 193 193 408 536 536 536>
VStem: 65 128<224 504> 408 128<218 224 224 504>
LayerCount: 2
Fore
SplineSet
408 218 m 2
 408 504 l 1
 536 504 l 1
 536 224 l 2
 536 73 448 -20 300 -20 c 0
 152 -20 65 73 65 224 c 2
 65 504 l 1
 193 504 l 1
 193 218 l 2
 193 145 231 100 301 100 c 0
 370 100 408 145 408 218 c 2
EndSplineSet
EndChar

StartChar: v
Encoding: 118 118 86
Width: 542
Flags: W
HStem: 0 21G<187 354 187 187> 0 144<271 271 271 354 187 271> 484 20G<4 140 140 140 401 538 538 538>
VStem: 4 534<504 504>
LayerCount: 2
Fore
SplineSet
4 504 m 1xb0
 140 504 l 1
 271 144 l 1x70
 401 504 l 1
 538 504 l 1
 354 0 l 1
 187 0 l 1
 4 504 l 1xb0
EndSplineSet
EndChar

StartChar: w
Encoding: 119 119 87
Width: 837
Flags: W
HStem: 0 21G<146 322 146 146 515 692 515 515> 0 137<239 239 239 322 146 239> 377 127<419 419> 484 20G<26 151 151 151 333 504 504 504 686 812 812 812>
VStem: 26 786<504 504>
LayerCount: 2
Fore
SplineSet
26 504 m 1x98
 151 504 l 1
 239 137 l 1
 333 504 l 1
 504 504 l 1
 598 137 l 1x58
 686 504 l 1
 812 504 l 1
 692 0 l 1
 515 0 l 1
 419 377 l 1xa8
 322 0 l 1
 146 0 l 1
 26 504 l 1x98
EndSplineSet
EndChar

StartChar: x
Encoding: 120 120 88
Width: 560
Flags: W
HStem: 0 21G<21 167 21 21 394 394 394 539> 484 20G<31 176 176 176 384 530 530 530>
VStem: 21 518<0 0>
LayerCount: 2
Fore
SplineSet
167 0 m 1
 21 0 l 1
 199 259 l 1
 31 504 l 1
 176 504 l 1
 280 349 l 1
 384 504 l 1
 530 504 l 1
 361 259 l 1
 539 0 l 1
 394 0 l 1
 280 169 l 1
 167 0 l 1
EndSplineSet
EndChar

StartChar: y
Encoding: 121 121 89
Width: 560
Flags: W
HStem: -250 116<94.5 111 75 162> 484 20G<4 145 145 145 422 556 556 556>
VStem: 4 552<504 504>
LayerCount: 2
Fore
SplineSet
302 -115 m 2
 267 -198 210 -250 114 -250 c 0
 75 -250 48 -244 24 -234 c 1
 24 -122 l 1
 40 -129 64 -134 86 -134 c 0
 136 -134 167 -117 188 -66 c 2
 216 1 l 1
 4 504 l 1
 145 504 l 1
 283 165 l 1
 422 504 l 1
 556 504 l 1
 302 -115 l 2
EndSplineSet
EndChar

StartChar: z
Encoding: 122 122 90
Width: 534
Flags: W
HStem: 0 114<56 56 215 478> 390 114<64 312 64 471 64 471>
VStem: 56 422<0 114 0 114>
LayerCount: 2
Fore
SplineSet
56 0 m 1
 56 114 l 1
 312 390 l 1
 64 390 l 1
 64 504 l 1
 471 504 l 1
 471 390 l 1
 215 114 l 1
 478 114 l 1
 478 0 l 1
 56 0 l 1
EndSplineSet
EndChar

StartChar: braceleft
Encoding: 123 123 91
Width: 332
Flags: W
HStem: -197 108<188.5 314 244 314 244 314> 222 109<18 70 18 70> 642 108<243 244 244 314>
VStem: 70 119<-50 -4.5 -50 5.5 558 603> 121 120<141.5 183.5 369.5 412>
LayerCount: 2
Fore
SplineSet
189 -33 m 0xf0
 189 -67 211 -89 244 -89 c 2
 314 -89 l 1
 314 -197 l 1
 243 -197 l 2xf0
 134 -197 70 -131 70 -33 c 0
 70 44 121 116 121 167 c 0
 121 200 108 222 70 222 c 2
 18 222 l 1
 18 331 l 1
 70 331 l 2
 108 331 121 353 121 386 c 0xe8
 121 438 70 509 70 586 c 0
 70 685 134 750 243 750 c 2
 314 750 l 1
 314 642 l 1
 244 642 l 2
 211 642 189 620 189 586 c 0xf0
 189 530 241 463 241 386 c 0
 241 339 221 301 184 277 c 1
 221 253 241 215 241 168 c 0xe8
 241 90 189 24 189 -33 c 0xf0
EndSplineSet
EndChar

StartChar: bar
Encoding: 124 124 92
Width: 377
Flags: W
HStem: 730 20G<129 248 248 248>
VStem: 129 119<-197 750 -197 750>
LayerCount: 2
Fore
SplineSet
129 -197 m 1
 129 750 l 1
 248 750 l 1
 248 -197 l 1
 129 -197 l 1
EndSplineSet
EndChar

StartChar: braceright
Encoding: 125 125 93
Width: 332
Flags: W
HStem: -197 108<20 91 91 92 20 91> 222 110<246 317 265 317> 642 108<20 91 20 92>
VStem: 94 120<141 183 141 191 369.5 411.5> 146 119<-50 -4.5 558 603>
LayerCount: 2
Fore
SplineSet
146 -33 m 0xe8
 146 24 94 90 94 168 c 0
 94 214 114 253 151 277 c 1
 114 300 94 339 94 386 c 0xf0
 94 462 146 530 146 586 c 0
 146 620 124 642 91 642 c 2
 20 642 l 1
 20 750 l 1
 92 750 l 2xe8
 200 750 265 684 265 586 c 0
 265 509 214 437 214 386 c 0
 214 353 227 332 265 332 c 2
 317 332 l 1
 317 222 l 1
 265 222 l 2
 227 222 214 200 214 166 c 0xf0
 214 116 265 44 265 -33 c 0
 265 -132 200 -197 92 -197 c 2
 20 -197 l 1
 20 -89 l 1
 91 -89 l 2
 124 -89 146 -67 146 -33 c 0xe8
EndSplineSet
EndChar

StartChar: asciitilde
Encoding: 126 126 94
Width: 600
Flags: W
HStem: 150 93<361.5 403 361.5 436.5> 291 93<197.5 239.5>
VStem: 81 92<156 236 236 240 156 282> 426 92<294 304 304 378 258 378>
LayerCount: 2
Fore
SplineSet
518 378 m 1
 518 304 l 2
 518 212 475 150 398 150 c 0
 270 150 268 291 211 291 c 0
 184 291 173 273 173 240 c 2
 173 156 l 1
 81 156 l 1
 81 236 l 2
 81 328 126 384 202 384 c 0
 331 384 333 243 390 243 c 0
 416 243 426 260 426 294 c 2
 426 378 l 1
 518 378 l 1
EndSplineSet
EndChar

StartChar: exclamdown
Encoding: 161 161 96
Width: 331
Flags: W
HStem: 350 174<142 189 142 189>
VStem: 78 175<412.5 460>
LayerCount: 2
Fore
SplineSet
166 524 m 0
 212 524 253 484 253 436 c 0
 253 389 212 350 166 350 c 0
 117 350 78 389 78 436 c 0
 78 484 118 524 166 524 c 0
212 287 m 1
 238 -188 l 1
 92 -188 l 1
 119 287 l 1
 212 287 l 1
EndSplineSet
EndChar

StartChar: cent
Encoding: 162 162 97
Width: 600
Flags: W
HStem: 0 21G<268 375 268 268> 500 20G<547 547> 680 20G<268 375 375 375>
VStem: 56 131<317 380.5 317 413> 268 107<0 80 0 83 0 83 211 488 488 488 618 700>
LayerCount: 2
Fore
SplineSet
268 700 m 1
 375 700 l 1
 375 618 l 1
 448 608 507 572 547 520 c 1
 445 442 l 1
 428 467 405 486 375 496 c 1
 375 204 l 1
 404 213 428 232 445 256 c 1
 547 178 l 1
 507 126 448 90 375 80 c 1
 375 0 l 1
 268 0 l 1
 268 83 l 1
 135 110 56 221 56 349 c 0
 56 477 135 588 268 615 c 1
 268 700 l 1
187 349 m 0
 187 285 219 234 268 211 c 1
 268 488 l 1
 219 464 187 412 187 349 c 0
EndSplineSet
EndChar

StartChar: sterling
Encoding: 163 163 98
Width: 600
Flags: W
HStem: 0 122<63 64 63 64 229 547> 295 106<63 148 63 205 63 148 329 329 329 497> 599 121<300 348.5>
VStem: 63 175<295 540.5 401 540.5> 105 133<500.5 540.5 492.5 582> 205 124<289 295 294 295>
LayerCount: 2
Fore
SplineSet
63 0 m 1xe8
 63 122 l 1
 64 122 l 1
 155 204 l 2
 191 236 205 252 205 289 c 0
 205 291 205 293 205 295 c 2xe4
 63 295 l 1
 63 401 l 1xf0
 148 401 l 1
 126 436 105 475 105 526 c 0
 105 638 191 720 318 720 c 0
 422 720 482 678 527 608 c 1
 426 532 l 1
 401 574 371 599 326 599 c 0
 274 599 238 566 238 515 c 0
 238 470 263 437 286 401 c 1xe8
 497 401 l 1
 497 295 l 1
 329 295 l 2
 329 293 329 290 329 288 c 0
 328 234 310 192 254 143 c 2
 229 122 l 1xe4
 547 122 l 1
 547 0 l 1
 63 0 l 1xe8
EndSplineSet
EndChar

StartChar: currency
Encoding: 164 164 99
Width: 600
Flags: W
HStem: 86 84<287 314.5> 335 85<286.5 315 286.5 323>
VStem: 130 94<239 266.5> 378 94<238.5 267 238.5 277.5>
LayerCount: 2
Fore
SplineSet
475 0 m 1
 374 101 l 1
 353 91 328 86 301 86 c 0
 273 86 248 91 226 101 c 1
 124 -1 l 1
 48 76 l 1
 148 176 l 1
 136 199 130 225 130 253 c 0
 130 280 136 306 147 328 c 1
 49 426 l 1
 125 503 l 1
 224 404 l 1
 247 414 272 420 301 420 c 0
 329 420 354 414 376 404 c 1
 475 503 l 1
 552 427 l 1
 455 330 l 1
 466 307 472 281 472 253 c 0
 472 224 466 198 454 174 c 1
 552 76 l 1
 475 0 l 1
301 170 m 0
 345 170 378 205 378 253 c 0
 378 302 345 335 301 335 c 0
 257 335 224 302 224 253 c 0
 224 204 257 170 301 170 c 0
EndSplineSet
EndChar

StartChar: yen
Encoding: 165 165 100
Width: 600
Flags: W
HStem: 0 21G<232 368 232 232> 217 106<53 232 53 232 368 546> 380 106<53 150 53 232 53 150 450 546> 680 20G<18 176 176 176 426 582 582 582>
VStem: 232 136<0 217 0 217 323 380>
LayerCount: 2
Fore
SplineSet
53 217 m 1
 53 323 l 1
 232 323 l 1
 232 380 l 1
 53 380 l 1
 53 486 l 1
 150 486 l 1
 18 700 l 1
 176 700 l 1
 301 491 l 1
 426 700 l 1
 582 700 l 1
 450 486 l 1
 546 486 l 1
 546 380 l 1
 368 380 l 1
 368 323 l 1
 546 323 l 1
 546 217 l 1
 368 217 l 1
 368 0 l 1
 232 0 l 1
 232 217 l 1
 53 217 l 1
EndSplineSet
EndChar

StartChar: brokenbar
Encoding: 166 166 101
Width: 377
Flags: W
HStem: 730 20G<129 248 248 248>
VStem: 129 119<-197 155 398 750>
LayerCount: 2
Fore
SplineSet
248 398 m 1
 129 398 l 1
 129 750 l 1
 248 750 l 1
 248 398 l 1
248 -197 m 1
 129 -197 l 1
 129 155 l 1
 248 155 l 1
 248 -197 l 1
EndSplineSet
EndChar

StartChar: section
Encoding: 167 167 102
Width: 527
Flags: W
HStem: -194 105<231 281 231 318> 615 105<243 293>
VStem: 33 125<242 270> 62 124<505.5 563 476.5 587.5> 339 123<-37 20.5 -62 49> 367 124<256 282>
LayerCount: 2
Fore
SplineSet
339 -16 m 0xe8
 339 114 33 45 33 270 c 0xe4
 35 334 71 380 121 406 c 1
 86 434 62 474 62 537 c 0
 62 638 147 720 267 720 c 0
 360 720 433 680 488 616 c 1
 410 537 l 1
 370 589 318 615 268 615 c 0
 218 615 186 584 186 542 c 0
 186 411 491 481 491 256 c 0xd4
 489 192 454 145 404 119 c 1
 438 92 462 52 462 -11 c 0
 462 -113 378 -194 258 -194 c 0
 164 -194 91 -156 36 -92 c 1
 114 -12 l 1
 155 -63 206 -89 256 -89 c 0
 306 -89 339 -58 339 -16 c 0xe8
158 274 m 0
 158 210 230 194 304 169 c 1
 341 181 367 210 367 250 c 0xe4
 367 314 295 331 221 356 c 1
 184 346 158 315 158 274 c 0
EndSplineSet
EndChar

StartChar: dieresis
Encoding: 168 168 103
Width: 600
Flags: W
HStem: 604 154<169 210 390.5 431.5>
VStem: 112 154<660 701.5> 334 154<660 701.5>
LayerCount: 2
Fore
SplineSet
190 604 m 0
 148 604 112 639 112 681 c 0
 112 722 148 758 190 758 c 0
 230 758 266 722 266 681 c 0
 266 639 230 604 190 604 c 0
411 604 m 0
 370 604 334 639 334 681 c 0
 334 722 370 758 411 758 c 0
 452 758 488 722 488 681 c 0
 488 639 452 604 411 604 c 0
EndSplineSet
EndChar

StartChar: copyright
Encoding: 169 169 104
Width: 834
Flags: W
HStem: -20 72<330.5 503.5 330.5 528> 123 95<387.5 446.5 387.5 463> 482 95<387.5 447> 648 72<330.5 503.5>
VStem: 43 79<268.5 431.5 268.5 450> 194 105<312 388 312 411.5> 711 80<268.5 431.5>
LayerCount: 2
Fore
SplineSet
791 350 m 0
 791 150 640 -20 416 -20 c 0
 194 -20 43 150 43 350 c 0
 43 550 194 720 418 720 c 0
 640 720 791 550 791 350 c 0
122 350 m 0
 122 187 244 52 417 52 c 0
 590 52 711 187 711 350 c 0
 711 513 590 648 417 648 c 0
 244 648 122 513 122 350 c 0
424 218 m 0
 469 218 504 240 526 271 c 1
 606 210 l 1
 566 157 502 123 424 123 c 0
 287 123 194 227 194 350 c 0
 194 473 287 577 424 577 c 0
 502 577 566 542 606 490 c 1
 526 429 l 1
 504 460 470 482 424 482 c 0
 351 482 299 426 299 350 c 0
 299 274 351 218 424 218 c 0
EndSplineSet
EndChar

StartChar: ordfeminine
Encoding: 170 170 105
Width: 358
Flags: W
HStem: 248 86<53 312 53 312> 393 68<145 153.5> 405 56<145 312 145 221> 648 79<158 186>
VStem: 34 85<483 501.5 483 513> 221 91<405 430 430 430 499 539 539 539 599 602>
LayerCount: 2
Fore
SplineSet
137 393 m 0xcc
 76 393 34 429 34 489 c 0xcc
 34 537 70 574 138 584 c 2
 221 599 l 1
 221 602 l 2
 221 629 201 648 171 648 c 0
 145 648 124 636 111 615 c 1
 44 664 l 1
 73 703 118 727 174 727 c 0
 267 727 312 670 312 602 c 2
 312 405 l 1
 221 405 l 1xbc
 221 430 l 1
 203 408 170 393 137 393 c 0xcc
119 492 m 0xac
 119 474 133 461 157 461 c 0
 187 461 207 478 221 499 c 1
 221 539 l 1
 162 528 l 2
 129 522 119 511 119 492 c 0xac
53 248 m 1
 53 334 l 1
 312 334 l 1
 312 248 l 1
 53 248 l 1
EndSplineSet
EndChar

StartChar: guillemotleft
Encoding: 171 171 106
Width: 564
Flags: W
HStem: 48 400<166 302 166 302 166 389 389 525>
VStem: 38 487<48 248>
LayerCount: 2
Fore
SplineSet
302 48 m 1
 166 48 l 1
 38 248 l 1
 166 448 l 1
 302 448 l 1
 176 248 l 1
 302 48 l 1
525 48 m 1
 389 48 l 1
 261 248 l 1
 389 448 l 1
 525 448 l 1
 399 248 l 1
 525 48 l 1
EndSplineSet
EndChar

StartChar: logicalnot
Encoding: 172 172 107
Width: 600
Flags: W
HStem: 304 108<48 443 48 551>
VStem: 443 108<92 304 304 304>
LayerCount: 2
Fore
SplineSet
551 412 m 1
 551 92 l 1
 443 92 l 1
 443 304 l 1
 48 304 l 1
 48 412 l 1
 551 412 l 1
EndSplineSet
EndChar

StartChar: registered
Encoding: 174 174 108
Width: 500
Flags: W
HStem: 276 45<199 301 199 317> 470 52<230 247 230 255> 576 52<230 252 252 255 230 230> 675 45<199 301>
VStem: 26 50<449.5 546.5 449.5 558> 167 63<370 470 370 522 522 576> 284 65<540.5 557.5> 424 50<449.5 546.5>
LayerCount: 2
Fore
SplineSet
474 498 m 0
 474 378 384 276 250 276 c 0
 116 276 26 378 26 498 c 0
 26 618 116 720 250 720 c 0
 384 720 474 618 474 498 c 0
76 498 m 0
 76 401 148 321 250 321 c 0
 352 321 424 401 424 498 c 0
 424 595 352 675 250 675 c 0
 148 675 76 595 76 498 c 0
167 370 m 1
 167 628 l 1
 252 628 l 2
 312 628 349 598 349 548 c 0
 349 517 334 494 307 481 c 1
 366 370 l 1
 295 370 l 1
 247 470 l 1
 230 470 l 1
 230 370 l 1
 167 370 l 1
255 576 m 2
 230 576 l 1
 230 522 l 1
 255 522 l 2
 273 522 284 532 284 549 c 0
 284 566 273 576 255 576 c 2
EndSplineSet
EndChar

StartChar: macron
Encoding: 175 175 109
Width: 600
Flags: W
HStem: 620 94<125 475 125 475>
VStem: 125 350<620 714 620 714>
LayerCount: 2
Fore
SplineSet
125 620 m 1
 125 714 l 1
 475 714 l 1
 475 620 l 1
 125 620 l 1
EndSplineSet
EndChar

StartChar: degree
Encoding: 176 176 110
Width: 406
Flags: W
HStem: 386 84<181.5 226 181.5 254.5> 635 85<181.5 226>
VStem: 32 95<528.5 577.5 528.5 600> 280 94<529 577.5>
LayerCount: 2
Fore
SplineSet
204 720 m 0
 305 720 374 647 374 553 c 0
 374 459 305 386 204 386 c 0
 102 386 32 459 32 553 c 0
 32 647 102 720 204 720 c 0
204 470 m 0
 248 470 280 505 280 553 c 0
 280 602 248 635 204 635 c 0
 159 635 127 602 127 553 c 0
 127 504 159 470 204 470 c 0
EndSplineSet
EndChar

StartChar: plusminus
Encoding: 177 177 111
Width: 600
Flags: W
HStem: 0 108<48 551 48 551> 277 108<48 246 48 246 354 551> 277 227<48 354 48 354 246 551 246 354>
VStem: 246 108<158 277 158 277 385 504>
LayerCount: 2
Fore
SplineSet
354 504 m 1xb0
 354 385 l 1
 551 385 l 1
 551 277 l 1
 354 277 l 1
 354 158 l 1
 246 158 l 1
 246 277 l 1
 48 277 l 1
 48 385 l 1
 246 385 l 1xd0
 246 504 l 1
 354 504 l 1xb0
551 0 m 1
 48 0 l 1
 48 108 l 1
 551 108 l 1
 551 0 l 1
EndSplineSet
EndChar

StartChar: uni00B2
Encoding: 178 178 112
Width: 389
Flags: W
HStem: 405 87<43 43 162 345> 762 85<166 200>
VStem: 43 302<405 492 405 492> 236 98<694.5 728.5>
LayerCount: 2
Fore
SplineSet
43 405 m 1xe0
 43 492 l 1xe0
 191 635 l 2
 208 653 236 676 236 713 c 0
 236 744 215 762 185 762 c 0
 147 762 124 736 102 699 c 1
 25 747 l 1
 62 807 111 847 190 847 c 0
 273 847 334 798 334 723 c 0
 334 659 294 617 257 582 c 2xd0
 162 492 l 1
 345 492 l 1
 345 405 l 1
 43 405 l 1xe0
EndSplineSet
EndChar

StartChar: uni00B3
Encoding: 179 179 113
Width: 389
Flags: W
HStem: 393 85<171 209 171 238.5> 589 86<115 181 181 185 115 181> 745 20G<38 38> 762 85<169.5 200>
VStem: 115 218<589 766.5 675 766.5> 235 98<711 733> 254 98<517 552>
LayerCount: 2
Fore
SplineSet
352 531 m 0xe2
 352 444 286 393 191 393 c 0
 107 393 52 426 18 487 c 1
 102 539 l 1
 123 496 151 478 191 478 c 0
 227 478 254 500 254 534 c 0
 254 570 226 589 185 589 c 2xe2
 115 589 l 1
 115 675 l 1xe8
 181 675 l 2
 211 675 235 691 235 719 c 0
 235 747 214 762 186 762 c 0
 153 762 132 745 117 717 c 1xd4
 38 765 l 1xe2
 71 816 120 847 192 847 c 0
 273 847 333 802 333 731 c 0xd4
 333 691 317 659 288 636 c 1
 329 614 352 576 352 531 c 0xe2
EndSplineSet
EndChar

StartChar: acute
Encoding: 180 180 114
Width: 601
Flags: W
HStem: 584 166<284 302 180 422>
VStem: 180 242<584 750>
LayerCount: 2
Fore
SplineSet
302 584 m 1
 180 584 l 1
 284 750 l 1
 422 750 l 1
 302 584 l 1
EndSplineSet
EndChar

StartChar: paragraph
Encoding: 182 182 115
Width: 720
Flags: W
HStem: 680 20G<268 398 398 398 498 617 617 617>
VStem: 278 120<-197 283 283 283> 498 119<-197 700 -197 700>
LayerCount: 2
Fore
SplineSet
398 -197 m 1
 278 -197 l 1
 278 283 l 1
 268 283 l 2
 118 283 23 362 23 491 c 0
 23 621 118 700 268 700 c 2
 398 700 l 1
 398 -197 l 1
498 -197 m 1
 498 700 l 1
 617 700 l 1
 617 -197 l 1
 498 -197 l 1
EndSplineSet
EndChar

StartChar: periodcentered
Encoding: 183 183 116
Width: 270
Flags: W
HStem: 167 174<111.5 159.5>
VStem: 48 176<230 277.5>
LayerCount: 2
Fore
SplineSet
136 167 m 0
 87 167 48 206 48 254 c 0
 48 301 87 341 136 341 c 0
 183 341 224 301 224 254 c 0
 224 206 183 167 136 167 c 0
EndSplineSet
EndChar

StartChar: cedilla
Encoding: 184 184 117
Width: 600
Flags: W
HStem: -250 72<274.5 296 274.5 328> -113 60<276 319> -113 120
VStem: 324 94<-155 -134>
LayerCount: 2
Fore
SplineSet
271 8 m 1xb0
 372 6 l 1xb0
 319 -53 l 1xd0
 373 -56 418 -93 418 -143 c 0
 418 -204 364 -250 292 -250 c 0
 246 -250 206 -238 182 -216 c 1
 226 -153 l 1
 241 -168 264 -178 285 -178 c 0
 307 -178 324 -166 324 -144 c 0
 324 -124 307 -113 284 -113 c 0
 268 -113 256 -116 242 -123 c 1
 204 -76 l 1
 271 8 l 1xb0
EndSplineSet
EndChar

StartChar: uni00B9
Encoding: 185 185 118
Width: 389
Flags: W
HStem: 405 87<53 162 53 162 258 355> 739 20G<30 30>
VStem: 162 96<492 736 736 736>
LayerCount: 2
Fore
SplineSet
53 405 m 1
 53 492 l 1
 162 492 l 1
 162 736 l 1
 77 690 l 1
 30 759 l 1
 166 835 l 1
 258 835 l 1
 258 492 l 1
 355 492 l 1
 355 405 l 1
 53 405 l 1
EndSplineSet
EndChar

StartChar: ordmasculine
Encoding: 186 186 119
Width: 406
Flags: W
HStem: 248 86<56 352 56 352> 393 85<181.5 226 181.5 254.5> 642 85<181.5 226>
VStem: 32 95<535.5 584.5 535.5 607> 56 296<248 334 248 334> 280 94<536 584.5>
LayerCount: 2
Fore
SplineSet
204 727 m 0xf4
 305 727 374 654 374 560 c 0
 374 466 305 393 204 393 c 0
 102 393 32 466 32 560 c 0
 32 654 102 727 204 727 c 0xf4
204 478 m 0
 248 478 280 512 280 560 c 0
 280 609 248 642 204 642 c 0
 159 642 127 609 127 560 c 0
 127 511 159 478 204 478 c 0
56 248 m 1xe8
 56 334 l 1
 352 334 l 1
 352 248 l 1
 56 248 l 1xe8
EndSplineSet
EndChar

StartChar: guillemotright
Encoding: 187 187 120
Width: 564
Flags: W
HStem: 48 400<38 175 38 175 38 261 261 398>
VStem: 38 487<48 248 248 448>
LayerCount: 2
Fore
SplineSet
38 448 m 1
 175 448 l 1
 302 248 l 1
 175 48 l 1
 38 48 l 1
 165 248 l 1
 38 448 l 1
261 448 m 1
 398 448 l 1
 525 248 l 1
 398 48 l 1
 261 48 l 1
 388 248 l 1
 261 448 l 1
EndSplineSet
EndChar

StartChar: onequarter
Encoding: 188 188 121
Width: 960
Flags: W
HStem: 0 189<793 793 889 889> 110 79<604 604 700 793 889 930> 270 87<53 162 53 162 258 355> 680 20G<166 258 258 258 718 848 848 848>
VStem: 162 96<357 601 601 601> 793 96<0 110 0 110 189 316 316 316>
LayerCount: 2
Fore
SplineSet
53 270 m 1xbc
 53 357 l 1
 162 357 l 1
 162 601 l 1
 77 555 l 1
 30 624 l 1
 166 700 l 1
 258 700 l 1
 258 357 l 1
 355 357 l 1
 355 270 l 1
 53 270 l 1xbc
204 0 m 1
 718 700 l 1
 848 700 l 1
 334 0 l 1
 204 0 l 1
604 110 m 1x7c
 604 189 l 1x7c
 779 430 l 1
 889 430 l 1
 889 189 l 1
 930 189 l 1xbc
 930 110 l 1
 889 110 l 1x7c
 889 0 l 1
 793 0 l 1xbc
 793 110 l 1
 604 110 l 1x7c
700 189 m 1xbc
 793 189 l 1
 793 316 l 1
 700 189 l 1xbc
EndSplineSet
EndChar

StartChar: onehalf
Encoding: 189 189 122
Width: 1030
Flags: W
HStem: 0 87<803 986 684 684> 270 87<53 162 53 162 258 355> 357 85<807 841> 680 20G<166 258 258 258 718 848 848 848>
VStem: 162 96<357 601 601 601> 684 302<0 87 0 87> 877 98<289.5 323.5>
LayerCount: 2
Fore
SplineSet
53 270 m 1xdc
 53 357 l 1
 162 357 l 1
 162 601 l 1
 77 555 l 1
 30 624 l 1
 166 700 l 1
 258 700 l 1
 258 357 l 1
 355 357 l 1
 355 270 l 1
 53 270 l 1xdc
204 0 m 1
 718 700 l 1
 848 700 l 1
 334 0 l 1
 204 0 l 1
684 0 m 1
 684 87 l 1xdc
 832 230 l 2
 849 248 877 271 877 308 c 0
 877 339 856 357 826 357 c 0
 788 357 765 331 743 294 c 1
 666 342 l 1
 703 402 752 442 831 442 c 0
 914 442 975 393 975 318 c 0
 975 254 935 212 898 177 c 2xba
 803 87 l 1
 986 87 l 1
 986 0 l 1
 684 0 l 1
EndSplineSet
EndChar

StartChar: threequarters
Encoding: 190 190 123
Width: 923
Flags: W
HStem: 0 189<756 756 852 852> 110 79<567 567 663 756 852 893> 258 85<171 209 171 238.5> 454 86<115 181 181 185 115 181> 627 85<169.5 200> 680 20G<681 811 811 811>
VStem: 115 218<454 631.5 540 631.5> 235 98<576 598> 254 98<382 417> 756 96<0 110 0 110 189 316 316 316>
LayerCount: 2
Fore
SplineSet
352 396 m 0xb8c0
 352 309 286 258 191 258 c 0
 107 258 52 291 18 352 c 1
 102 404 l 1
 123 361 151 343 191 343 c 0
 227 343 254 365 254 399 c 0
 254 435 226 454 185 454 c 2xb8c0
 115 454 l 1
 115 540 l 1xba40
 181 540 l 2
 211 540 235 556 235 584 c 0
 235 612 214 627 186 627 c 0
 153 627 132 610 117 582 c 1
 38 630 l 1
 71 681 120 712 192 712 c 0
 273 712 333 667 333 596 c 0xb940
 333 556 317 524 288 501 c 1
 329 479 352 441 352 396 c 0xb8c0
167 0 m 1
 681 700 l 1
 811 700 l 1x74c0
 297 0 l 1
 167 0 l 1
567 110 m 1
 567 189 l 1x78c0
 742 430 l 1
 852 430 l 1
 852 189 l 1
 893 189 l 1xb8c0
 893 110 l 1
 852 110 l 1x78c0
 852 0 l 1
 756 0 l 1xb8c0
 756 110 l 1
 567 110 l 1
663 189 m 1xb8c0
 756 189 l 1
 756 316 l 1
 663 189 l 1xb8c0
EndSplineSet
EndChar

StartChar: questiondown
Encoding: 191 191 124
Width: 518
Flags: W
HStem: -208 120<234 286 234 307> 350 174<272.5 320>
VStem: 30 138<-26.5 42 -26.5 58.5> 209 175<412.5 460>
LayerCount: 2
Fore
SplineSet
296 524 m 0
 344 524 384 484 384 436 c 0
 384 389 344 350 296 350 c 0
 249 350 209 389 209 436 c 0
 209 484 249 524 296 524 c 0
344 287 m 1
 360 122 l 1
 243 109 168 84 168 0 c 0
 168 -53 208 -88 260 -88 c 0
 312 -88 345 -62 383 -6 c 1
 493 -74 l 1
 436 -162 360 -208 254 -208 c 0
 136 -208 30 -127 30 -1 c 0
 30 118 119 192 244 213 c 1
 251 287 l 1
 344 287 l 1
EndSplineSet
EndChar

StartChar: Agrave
Encoding: 192 192 125
Width: 746
Flags: W
HStem: 0 21G<15 15 15 166 580 580 580 731> 182 121<277 469 277 513 233 469> 566 134<373 373> 680 20G<280 466 466 466> 760 135<311 311 311 328 182 441>
VStem: 15 716<0 0>
LayerCount: 2
Fore
SplineSet
311 760 m 1xdc
 182 895 l 1
 328 895 l 1
 441 760 l 1
 311 760 l 1xdc
15 0 m 1
 280 700 l 1
 466 700 l 1
 731 0 l 1
 580 0 l 1
 513 182 l 1
 233 182 l 1
 166 0 l 1
 15 0 l 1
277 303 m 1
 469 303 l 1
 373 566 l 1xec
 277 303 l 1
EndSplineSet
EndChar

StartChar: Aacute
Encoding: 193 193 126
Width: 746
Flags: W
HStem: 0 21G<15 15 15 166 580 580 580 731> 182 121<277 469 277 513 233 469> 566 134<373 373> 680 20G<280 466 466 466> 760 135<421 437 308 567>
VStem: 15 716<0 0>
LayerCount: 2
Fore
SplineSet
437 760 m 1xdc
 308 760 l 1
 421 895 l 1
 567 895 l 1
 437 760 l 1xdc
15 0 m 1
 280 700 l 1
 466 700 l 1
 731 0 l 1
 580 0 l 1
 513 182 l 1
 233 182 l 1
 166 0 l 1
 15 0 l 1
277 303 m 1
 469 303 l 1
 373 566 l 1xec
 277 303 l 1
EndSplineSet
EndChar

StartChar: Acircumflex
Encoding: 194 194 127
Width: 746
Flags: W
HStem: 0 21G<15 15 15 166 580 580 580 731> 182 121<277 469 277 513 233 469> 566 134<373 373> 680 20G<280 466 466 466> 760 135<187 446 187 446 301 447 301 558> 837 58<373 373>
VStem: 15 716<0 0>
LayerCount: 2
Fore
SplineSet
299 760 m 1xda
 187 760 l 1
 301 895 l 1
 446 895 l 1
 558 760 l 1
 447 760 l 1xda
 373 837 l 1xd6
 299 760 l 1xda
15 0 m 1
 280 700 l 1
 466 700 l 1
 731 0 l 1
 580 0 l 1
 513 182 l 1
 233 182 l 1
 166 0 l 1
 15 0 l 1
277 303 m 1
 469 303 l 1
 373 566 l 1xea
 277 303 l 1
EndSplineSet
EndChar

StartChar: Atilde
Encoding: 195 195 128
Width: 746
Flags: W
HStem: 0 21G<15 15 15 166 580 580 580 731> 182 121<277 469 277 513 233 469> 566 134<373 373> 680 20G<280 466 466 466> 753 88<432 452.5 432 481> 753 139<465 481> 763 139<188 329.5 265 280> 814 88<293 314.5>
VStem: 188 92<763 789 700 793> 466 92<857.5 861 825.5 866>
LayerCount: 2
Fore
SplineSet
188 763 m 1xd2c0
 188 793 l 2
 188 863 234 902 296 902 c 0xd2c0
 363 902 417 841 447 841 c 0
 458 841 466 849 466 866 c 2xd8c0
 465 892 l 1
 557 892 l 1
 558 861 l 2
 558 790 511 753 451 753 c 0xd4c0
 382 753 330 814 299 814 c 0
 287 814 280 807 280 789 c 2xd1c0
 280 763 l 1
 188 763 l 1xd2c0
15 0 m 1
 280 700 l 1
 466 700 l 1
 731 0 l 1
 580 0 l 1
 513 182 l 1
 233 182 l 1
 166 0 l 1
 15 0 l 1
277 303 m 1
 469 303 l 1
 373 566 l 1xe2c0
 277 303 l 1
EndSplineSet
EndChar

StartChar: Adieresis
Encoding: 196 196 129
Width: 746
Flags: W
HStem: 0 21G<15 15 15 166 580 580 580 731> 182 121<277 469 277 513 233 469> 566 134<373 373> 680 20G<280 466 466 466> 755 141<245 283.5 462.5 501.5>
VStem: 193 142<806 845> 411 142<806 845>
LayerCount: 2
Fore
SplineSet
265 755 m 0xde
 225 755 193 786 193 826 c 0
 193 864 225 896 265 896 c 0
 302 896 335 864 335 826 c 0
 335 786 302 755 265 755 c 0xde
482 755 m 0
 443 755 411 786 411 826 c 0
 411 864 443 896 482 896 c 0
 521 896 553 864 553 826 c 0
 553 786 521 755 482 755 c 0
15 0 m 1
 280 700 l 1
 466 700 l 1
 731 0 l 1
 580 0 l 1
 513 182 l 1
 233 182 l 1
 166 0 l 1
 15 0 l 1
277 303 m 1
 469 303 l 1
 373 566 l 1xee
 277 303 l 1
EndSplineSet
EndChar

StartChar: Aring
Encoding: 197 197 130
Width: 746
Flags: W
HStem: 0 21G<15 15 15 166 580 580 580 731> 182 121<277 469 277 513 233 469> 566 134<373 373> 680 20G<280 466 466 466> 740 66<356 390 356 409.5> 898 66<356 390>
VStem: 242 74<837 867.5 837 891> 430 75<837 867.5>
LayerCount: 2
Fore
SplineSet
242 852 m 0xdf
 242 930 301 964 373 964 c 0
 446 964 505 930 505 852 c 0
 505 775 446 740 373 740 c 0
 301 740 242 775 242 852 c 0xdf
430 852 m 0
 430 883 407 898 373 898 c 0
 339 898 316 883 316 852 c 0
 316 822 339 806 373 806 c 0
 407 806 430 822 430 852 c 0
15 0 m 1
 280 700 l 1
 466 700 l 1
 731 0 l 1
 580 0 l 1
 513 182 l 1
 233 182 l 1
 166 0 l 1
 15 0 l 1
277 303 m 1
 469 303 l 1
 373 566 l 1xef
 277 303 l 1
EndSplineSet
EndChar

StartChar: AE
Encoding: 198 198 131
Width: 992
Flags: W
HStem: 0 118<656 922 656 922> 182 121<351 514 351 514 280 514> 298 118<656 882 656 882> 582 118<656 922 656 656>
VStem: 514 142<118 182 182 182 416 579 579 579>
LayerCount: 2
Fore
SplineSet
9 0 m 1xb8
 431 700 l 1
 922 700 l 1
 922 582 l 1
 656 582 l 1
 656 416 l 1
 882 416 l 1
 882 298 l 1
 656 298 l 1xb8
 656 118 l 1
 922 118 l 1
 922 0 l 1
 514 0 l 1
 514 182 l 1
 280 182 l 1xd8
 173 0 l 1
 9 0 l 1xb8
351 303 m 1xd8
 514 303 l 1
 514 579 l 1
 351 303 l 1xd8
EndSplineSet
EndChar

StartChar: Ccedilla
Encoding: 199 199 132
Width: 740
Flags: W
HStem: -14 21G<345 345> 587 133<349 455>
VStem: 43 146<283 417 283 450>
LayerCount: 2
Fore
SplineSet
415 113 m 0
 495 113 558 152 598 209 c 1
 710 123 l 1
 656 49 572 -3 470 -16 c 1
 383 -161 l 1
 257 -161 l 1
 345 -14 l 1
 163 18 43 172 43 350 c 0
 43 550 194 720 415 720 c 0
 542 720 646 663 710 578 c 1
 598 491 l 1
 558 548 495 587 415 587 c 0
 283 587 189 484 189 350 c 0
 189 216 283 113 415 113 c 0
EndSplineSet
EndChar

StartChar: Egrave
Encoding: 200 200 133
Width: 583
Flags: W
HStem: 0 118<245 511 245 511> 298 118<245 471 245 471> 582 118<245 511 245 245> 760 135<244 244 244 261 115 374>
VStem: 103 142<118 298 416 582>
LayerCount: 2
Fore
SplineSet
244 760 m 1
 115 895 l 1
 261 895 l 1
 374 760 l 1
 244 760 l 1
103 0 m 1
 103 700 l 1
 511 700 l 1
 511 582 l 1
 245 582 l 1
 245 416 l 1
 471 416 l 1
 471 298 l 1
 245 298 l 1
 245 118 l 1
 511 118 l 1
 511 0 l 1
 103 0 l 1
EndSplineSet
EndChar

StartChar: Eacute
Encoding: 201 201 134
Width: 583
Flags: W
HStem: 0 118<245 511 245 511> 298 118<245 471 245 471> 582 118<245 511 245 245> 760 135<354 370 241 500>
VStem: 103 142<118 298 416 582>
LayerCount: 2
Fore
SplineSet
370 760 m 1
 241 760 l 1
 354 895 l 1
 500 895 l 1
 370 760 l 1
103 0 m 1
 103 700 l 1
 511 700 l 1
 511 582 l 1
 245 582 l 1
 245 416 l 1
 471 416 l 1
 471 298 l 1
 245 298 l 1
 245 118 l 1
 511 118 l 1
 511 0 l 1
 103 0 l 1
EndSplineSet
EndChar

StartChar: Ecircumflex
Encoding: 202 202 135
Width: 583
Flags: W
HStem: 0 118<245 511 245 511> 298 118<245 471 245 471> 582 118<245 511 245 245> 760 135<120 379 120 379 234 380 234 491> 837 58<306 306>
VStem: 103 142<118 298 416 582>
LayerCount: 2
Fore
SplineSet
232 760 m 1xf4
 120 760 l 1
 234 895 l 1
 379 895 l 1
 491 760 l 1
 380 760 l 1xf4
 306 837 l 1xec
 232 760 l 1xf4
103 0 m 1
 103 700 l 1
 511 700 l 1
 511 582 l 1
 245 582 l 1
 245 416 l 1
 471 416 l 1
 471 298 l 1
 245 298 l 1
 245 118 l 1
 511 118 l 1
 511 0 l 1
 103 0 l 1
EndSplineSet
EndChar

StartChar: Edieresis
Encoding: 203 203 136
Width: 583
Flags: W
HStem: 0 118<245 511 245 511> 298 118<245 471 245 471> 582 118<245 511 245 245> 755 141<178 216.5 395.5 434.5>
VStem: 103 142<118 298 416 582> 126 142<806 845> 344 142<806 845>
LayerCount: 2
Fore
SplineSet
198 755 m 0xf6
 158 755 126 786 126 826 c 0
 126 864 158 896 198 896 c 0
 235 896 268 864 268 826 c 0
 268 786 235 755 198 755 c 0xf6
415 755 m 0
 376 755 344 786 344 826 c 0
 344 864 376 896 415 896 c 0
 454 896 486 864 486 826 c 0
 486 786 454 755 415 755 c 0
103 0 m 1xea
 103 700 l 1
 511 700 l 1
 511 582 l 1
 245 582 l 1
 245 416 l 1
 471 416 l 1
 471 298 l 1
 245 298 l 1
 245 118 l 1
 511 118 l 1
 511 0 l 1
 103 0 l 1xea
EndSplineSet
EndChar

StartChar: Igrave
Encoding: 204 204 137
Width: 348
Flags: W
HStem: 0 21G<103 103 103 245> 680 20G<103 245 245 245> 760 135<112 112 112 129 -17 242>
VStem: 103 142<0 700 0 700>
LayerCount: 2
Fore
SplineSet
112 760 m 1
 -17 895 l 1
 129 895 l 1
 242 760 l 1
 112 760 l 1
103 0 m 1
 103 700 l 1
 245 700 l 1
 245 0 l 1
 103 0 l 1
EndSplineSet
EndChar

StartChar: Iacute
Encoding: 205 205 138
Width: 348
Flags: W
HStem: 0 21G<103 103 103 245> 680 20G<103 245 245 245> 760 135<222 238 109 368>
VStem: 103 142<0 700 0 700>
LayerCount: 2
Fore
SplineSet
238 760 m 1
 109 760 l 1
 222 895 l 1
 368 895 l 1
 238 760 l 1
103 0 m 1
 103 700 l 1
 245 700 l 1
 245 0 l 1
 103 0 l 1
EndSplineSet
EndChar

StartChar: Icircumflex
Encoding: 206 206 139
Width: 348
Flags: W
HStem: 0 21G<103 103 103 245> 680 20G<103 245 245 245> 760 135<-12 247 -12 247 102 248 102 359> 837 58<174 174>
VStem: 103 142<0 700 0 700>
LayerCount: 2
Fore
SplineSet
100 760 m 1xe8
 -12 760 l 1
 102 895 l 1
 247 895 l 1
 359 760 l 1
 248 760 l 1xe8
 174 837 l 1xd8
 100 760 l 1xe8
103 0 m 1
 103 700 l 1
 245 700 l 1
 245 0 l 1
 103 0 l 1
EndSplineSet
EndChar

StartChar: Idieresis
Encoding: 207 207 140
Width: 348
Flags: W
HStem: 0 21G<103 103 103 245> 680 20G<103 245 245 245> 755 141<46 84.5 263.5 302.5>
VStem: -6 142<806 845> 103 142<0 700 0 700> 212 142<806 845>
LayerCount: 2
Fore
SplineSet
66 755 m 0xf4
 26 755 -6 786 -6 826 c 0
 -6 864 26 896 66 896 c 0
 103 896 136 864 136 826 c 0
 136 786 103 755 66 755 c 0xf4
283 755 m 0
 244 755 212 786 212 826 c 0
 212 864 244 896 283 896 c 0
 322 896 354 864 354 826 c 0
 354 786 322 755 283 755 c 0
103 0 m 1xe8
 103 700 l 1
 245 700 l 1
 245 0 l 1
 103 0 l 1xe8
EndSplineSet
EndChar

StartChar: Eth
Encoding: 208 208 141
Width: 794
Flags: W
HStem: 0 129<245 378> 310 94<0 103 0 103 245 409> 571 129<245 378 378 380 245 245>
VStem: 103 142<129 310 129 310 129 310 404 571> 604 146<288 412.5>
LayerCount: 2
Fore
SplineSet
103 0 m 1
 103 310 l 1
 0 310 l 1
 0 404 l 1
 103 404 l 1
 103 700 l 1
 378 700 l 2
 600 700 750 539 750 350 c 0
 750 161 600 0 378 0 c 2
 103 0 l 1
409 310 m 1
 245 310 l 1
 245 129 l 1
 380 129 l 2
 510 129 604 226 604 350 c 0
 604 475 510 571 380 571 c 2
 245 571 l 1
 245 404 l 1
 409 404 l 1
 409 310 l 1
EndSplineSet
EndChar

StartChar: Ntilde
Encoding: 209 209 142
Width: 843
Flags: W
HStem: 0 21G<103 103 103 245 558 558 558 740> 680 20G<103 285 285 285 598 740 740 740> 753 88<480 500.5 480 529> 753 139<513 529> 763 139<236 377.5 313 328> 814 88<341 362.5>
VStem: 103 142<0 506 0 700> 236 92<763 789 763 793 763 828> 514 92<857.5 861 825.5 866> 598 142<194 700 0 700>
LayerCount: 2
Fore
SplineSet
236 763 m 1xc940
 236 793 l 2
 236 863 282 902 344 902 c 0xc940
 411 902 465 841 495 841 c 0
 506 841 514 849 514 866 c 2xe280
 513 892 l 1
 605 892 l 1
 606 861 l 2
 606 790 559 753 499 753 c 0xd280
 430 753 378 814 347 814 c 0
 335 814 328 807 328 789 c 2xc540
 328 763 l 1
 236 763 l 1xc940
103 0 m 1xca40
 103 700 l 1
 285 700 l 1
 598 194 l 1
 598 700 l 1
 740 700 l 1
 740 0 l 1
 558 0 l 1
 245 506 l 1
 245 0 l 1
 103 0 l 1xca40
EndSplineSet
EndChar

StartChar: Ograve
Encoding: 210 210 143
Width: 829
Flags: W
HStem: -20 133<349 480.5 349 525> 587 133<349 480.5> 760 135<353 353 353 370 224 483>
VStem: 43 146<283 417 283 450> 640 146<283 417>
LayerCount: 2
Fore
SplineSet
353 760 m 1
 224 895 l 1
 370 895 l 1
 483 760 l 1
 353 760 l 1
415 720 m 0
 635 720 786 550 786 350 c 0
 786 150 635 -20 415 -20 c 0
 194 -20 43 150 43 350 c 0
 43 550 194 720 415 720 c 0
415 113 m 0
 546 113 640 216 640 350 c 0
 640 484 546 587 415 587 c 0
 283 587 189 484 189 350 c 0
 189 216 283 113 415 113 c 0
EndSplineSet
EndChar

StartChar: Oacute
Encoding: 211 211 144
Width: 829
Flags: W
HStem: -20 133<349 480.5 349 525> 587 133<349 480.5> 760 135<463 479 350 609>
VStem: 43 146<283 417 283 450> 640 146<283 417>
LayerCount: 2
Fore
SplineSet
479 760 m 1
 350 760 l 1
 463 895 l 1
 609 895 l 1
 479 760 l 1
415 720 m 0
 635 720 786 550 786 350 c 0
 786 150 635 -20 415 -20 c 0
 194 -20 43 150 43 350 c 0
 43 550 194 720 415 720 c 0
415 113 m 0
 546 113 640 216 640 350 c 0
 640 484 546 587 415 587 c 0
 283 587 189 484 189 350 c 0
 189 216 283 113 415 113 c 0
EndSplineSet
EndChar

StartChar: Ocircumflex
Encoding: 212 212 145
Width: 829
Flags: W
HStem: -20 133<349 480.5 349 525> 587 133<349 480.5> 760 135<229 488 229 488 343 489 343 600> 837 58<415 415>
VStem: 43 146<283 417 283 450> 640 146<283 417>
LayerCount: 2
Fore
SplineSet
341 760 m 1xec
 229 760 l 1
 343 895 l 1
 488 895 l 1
 600 760 l 1
 489 760 l 1xec
 415 837 l 1xdc
 341 760 l 1xec
415 720 m 0
 635 720 786 550 786 350 c 0
 786 150 635 -20 415 -20 c 0
 194 -20 43 150 43 350 c 0
 43 550 194 720 415 720 c 0
415 113 m 0
 546 113 640 216 640 350 c 0
 640 484 546 587 415 587 c 0
 283 587 189 484 189 350 c 0
 189 216 283 113 415 113 c 0
EndSplineSet
EndChar

StartChar: Otilde
Encoding: 213 213 146
Width: 829
Flags: W
HStem: -20 133<349 480.5 349 525> 587 133<349 480.5> 753 88<474 494.5 474 523> 753 139<507 523> 763 139<230 371.5 307 322> 814 88<335 356.5>
VStem: 43 146<283 417 283 450> 230 92<763 789 763 793 763 828> 508 92<857.5 861 825.5 866> 640 146<283 417>
LayerCount: 2
Fore
SplineSet
230 763 m 1xcbc0
 230 793 l 2
 230 863 276 902 338 902 c 0xcbc0
 405 902 459 841 489 841 c 0
 500 841 508 849 508 866 c 2xe3c0
 507 892 l 1
 599 892 l 1
 600 861 l 2
 600 790 553 753 493 753 c 0xd3c0
 424 753 372 814 341 814 c 0
 329 814 322 807 322 789 c 2xc7c0
 322 763 l 1
 230 763 l 1xcbc0
415 720 m 0
 635 720 786 550 786 350 c 0
 786 150 635 -20 415 -20 c 0
 194 -20 43 150 43 350 c 0
 43 550 194 720 415 720 c 0
415 113 m 0
 546 113 640 216 640 350 c 0
 640 484 546 587 415 587 c 0
 283 587 189 484 189 350 c 0
 189 216 283 113 415 113 c 0
EndSplineSet
EndChar

StartChar: Odieresis
Encoding: 214 214 147
Width: 829
Flags: W
HStem: -20 133<349 480.5 349 525> 587 133<349 480.5> 755 141<287 325.5 504.5 543.5>
VStem: 43 146<283 417 283 450> 235 142<806 845> 453 142<806 845> 640 146<283 417>
LayerCount: 2
Fore
SplineSet
307 755 m 0
 267 755 235 786 235 826 c 0
 235 864 267 896 307 896 c 0
 344 896 377 864 377 826 c 0
 377 786 344 755 307 755 c 0
524 755 m 0
 485 755 453 786 453 826 c 0
 453 864 485 896 524 896 c 0
 563 896 595 864 595 826 c 0
 595 786 563 755 524 755 c 0
415 720 m 0
 635 720 786 550 786 350 c 0
 786 150 635 -20 415 -20 c 0
 194 -20 43 150 43 350 c 0
 43 550 194 720 415 720 c 0
415 113 m 0
 546 113 640 216 640 350 c 0
 640 484 546 587 415 587 c 0
 283 587 189 484 189 350 c 0
 189 216 283 113 415 113 c 0
EndSplineSet
EndChar

StartChar: multiply
Encoding: 215 215 148
Width: 600
Flags: W
HStem: 0 21G<124 124 475 475> 484 20G<125 125 475 475>
VStem: 48 504<76 77>
LayerCount: 2
Fore
SplineSet
475 0 m 1
 300 176 l 1
 124 0 l 1
 48 77 l 1
 223 252 l 1
 49 427 l 1
 125 504 l 1
 300 329 l 1
 475 504 l 1
 552 428 l 1
 376 252 l 1
 552 76 l 1
 475 0 l 1
EndSplineSet
EndChar

StartChar: Oslash
Encoding: 216 216 149
Width: 829
Flags: W
HStem: -20 133<395.5 480.5 395.5 525> 587 133<349 434> 601 119<691 691>
VStem: 43 146<322.5 417 322.5 450> 640 146<283 377.5>
LayerCount: 2
Fore
SplineSet
174 -20 m 1xd8
 43 -20 l 1
 138 99 l 1
 78 165 43 254 43 350 c 0
 43 550 194 720 415 720 c 0
 490 720 557 700 612 667 c 1
 655 720 l 1
 786 720 l 1xd8
 691 601 l 1xb8
 751 535 786 446 786 350 c 0
 786 150 635 -20 415 -20 c 0
 340 -20 273 0 217 34 c 1
 174 -20 l 1xd8
189 350 m 0
 189 295 205 245 233 205 c 1
 519 562 l 1
 489 578 453 587 415 587 c 0
 283 587 189 484 189 350 c 0
415 113 m 0
 546 113 640 216 640 350 c 0
 640 405 624 455 596 495 c 1
 310 138 l 1
 341 122 376 113 415 113 c 0
EndSplineSet
EndChar

StartChar: Ugrave
Encoding: 217 217 150
Width: 733
Flags: W
HStem: -20 133<322.5 410.5 322.5 454> 680 20G<83 225 225 225 508 650 650 650> 760 135<305 305 305 322 176 435>
VStem: 83 142<274 700> 508 142<262 274 274 700>
LayerCount: 2
Fore
SplineSet
305 760 m 1
 176 895 l 1
 322 895 l 1
 435 760 l 1
 305 760 l 1
508 262 m 2
 508 700 l 1
 650 700 l 1
 650 274 l 2
 650 90 542 -20 366 -20 c 0
 191 -20 83 90 83 274 c 2
 83 700 l 1
 225 700 l 1
 225 262 l 2
 225 168 278 113 367 113 c 0
 454 113 508 168 508 262 c 2
EndSplineSet
EndChar

StartChar: Uacute
Encoding: 218 218 151
Width: 733
Flags: W
HStem: -20 133<322.5 410.5 322.5 454> 680 20G<83 225 225 225 508 650 650 650> 760 135<415 431 302 561>
VStem: 83 142<274 700> 508 142<262 274 274 700>
LayerCount: 2
Fore
SplineSet
431 760 m 1
 302 760 l 1
 415 895 l 1
 561 895 l 1
 431 760 l 1
508 262 m 2
 508 700 l 1
 650 700 l 1
 650 274 l 2
 650 90 542 -20 366 -20 c 0
 191 -20 83 90 83 274 c 2
 83 700 l 1
 225 700 l 1
 225 262 l 2
 225 168 278 113 367 113 c 0
 454 113 508 168 508 262 c 2
EndSplineSet
EndChar

StartChar: Ucircumflex
Encoding: 219 219 152
Width: 733
Flags: W
HStem: -20 133<322.5 410.5 322.5 454> 680 20G<83 225 225 225 508 650 650 650> 760 135<181 440 181 440 295 441 295 552> 837 58<367 367>
VStem: 83 142<274 700> 508 142<262 274 274 700>
LayerCount: 2
Fore
SplineSet
293 760 m 1xec
 181 760 l 1
 295 895 l 1
 440 895 l 1
 552 760 l 1
 441 760 l 1xec
 367 837 l 1xdc
 293 760 l 1xec
508 262 m 2
 508 700 l 1
 650 700 l 1
 650 274 l 2
 650 90 542 -20 366 -20 c 0
 191 -20 83 90 83 274 c 2
 83 700 l 1
 225 700 l 1
 225 262 l 2
 225 168 278 113 367 113 c 0
 454 113 508 168 508 262 c 2
EndSplineSet
EndChar

StartChar: Udieresis
Encoding: 220 220 153
Width: 733
Flags: W
HStem: -20 133<322.5 410.5 322.5 454> 680 20G<83 225 225 225 508 650 650 650> 755 141<239 277.5 456.5 495.5>
VStem: 83 142<274 700> 187 142<806 845> 405 142<806 845> 508 142<262 274 274 700>
LayerCount: 2
Fore
SplineSet
259 755 m 0xec
 219 755 187 786 187 826 c 0
 187 864 219 896 259 896 c 0
 296 896 329 864 329 826 c 0
 329 786 296 755 259 755 c 0xec
476 755 m 0
 437 755 405 786 405 826 c 0
 405 864 437 896 476 896 c 0
 515 896 547 864 547 826 c 0
 547 786 515 755 476 755 c 0
508 262 m 2xf2
 508 700 l 1
 650 700 l 1
 650 274 l 2
 650 90 542 -20 366 -20 c 0
 191 -20 83 90 83 274 c 2
 83 700 l 1
 225 700 l 1
 225 262 l 2
 225 168 278 113 367 113 c 0
 454 113 508 168 508 262 c 2xf2
EndSplineSet
EndChar

StartChar: Yacute
Encoding: 221 221 154
Width: 710
Flags: W
HStem: 0 21G<284 426 284 284> 680 20G<-5 168 168 168 542 714 714 714> 760 135<402 418 289 548>
VStem: 284 142<0 295 295 295>
LayerCount: 2
Fore
SplineSet
418 760 m 1
 289 760 l 1
 402 895 l 1
 548 895 l 1
 418 760 l 1
714 700 m 1
 426 298 l 1
 426 0 l 1
 284 0 l 1
 284 295 l 1
 -5 700 l 1
 168 700 l 1
 355 436 l 1
 542 700 l 1
 714 700 l 1
EndSplineSet
EndChar

StartChar: Thorn
Encoding: 222 222 155
Width: 606
Flags: W
HStem: 0 21G<103 103 103 245> 150 118<245 334 245 340> 449 118<245 334 334 340 245 334> 680 20G<103 245 245 245>
VStem: 103 142<0 150 0 268 268 449 567 700> 436 146<331 388>
LayerCount: 2
Fore
SplineSet
103 0 m 1
 103 700 l 1
 245 700 l 1
 245 567 l 1
 334 567 l 2
 488 567 582 488 582 358 c 0
 582 229 488 150 334 150 c 2
 245 150 l 1
 245 0 l 1
 103 0 l 1
340 449 m 2
 245 449 l 1
 245 268 l 1
 340 268 l 2
 400 268 436 302 436 360 c 0
 436 416 400 449 340 449 c 2
EndSplineSet
EndChar

StartChar: germandbls
Encoding: 223 223 156
Width: 603
Flags: W
HStem: -4 118<318.5 356.5 315 394.5> 0 21G<76 204 76 76 276 276> 319 120<276 308 308 317 276 308> 631 119<276.5 337>
VStem: 76 128<0 534 0 594> 407 131<511.5 564.5> 431 132<186 245.5>
LayerCount: 2
Fore
SplineSet
331 -4 m 0xba
 306 -4 291 -2 276 0 c 1x7a
 276 120 l 1
 290 116 306 114 324 114 c 0
 389 114 431 156 431 216 c 0xba
 431 275 384 319 317 319 c 2
 276 319 l 1
 276 439 l 1
 308 439 l 2
 368 439 407 479 407 537 c 0
 407 592 367 631 307 631 c 0
 246 631 204 592 204 534 c 2
 204 0 l 1
 76 0 l 1
 76 534 l 2
 76 654 164 750 310 750 c 0
 455 750 538 661 538 544 c 0x7c
 538 479 501 406 433 381 c 1
 517 358 563 284 563 208 c 0
 563 72 458 -4 331 -4 c 0xba
EndSplineSet
EndChar

StartChar: agrave
Encoding: 224 224 157
Width: 565
Flags: W
HStem: -15 101<222.5 247.5> 0 21G<369 496 369 369> 413 111<246.5 300> 584 166<215 215 215 233 95 336>
VStem: 48 126<125 157.5 125 174> 369 127<0 49 49 49 153 224 224 224 313 326 0 352.5>
LayerCount: 2
Fore
SplineSet
215 584 m 1xbc
 95 750 l 1
 233 750 l 1
 336 584 l 1
 215 584 l 1xbc
218 -15 m 0
 117 -15 48 43 48 136 c 0
 48 212 107 269 215 287 c 2
 369 313 l 1
 369 326 l 2
 369 379 329 413 271 413 c 0
 222 413 184 390 157 353 c 1
 64 424 l 1
 109 486 183 524 275 524 c 0
 421 524 496 437 496 326 c 2
 496 0 l 1
 369 0 l 1x7c
 369 49 l 1
 337 10 277 -15 218 -15 c 0
174 142 m 0
 174 108 201 86 244 86 c 0
 302 86 344 113 369 153 c 1
 369 224 l 1
 249 204 l 2
 196 195 174 173 174 142 c 0
EndSplineSet
EndChar

StartChar: aacute
Encoding: 225 225 158
Width: 565
Flags: W
HStem: -15 101<222.5 247.5> 0 21G<369 496 369 369> 413 111<246.5 300> 584 166<329 347 225 467>
VStem: 48 126<125 157.5 125 174> 369 127<0 49 49 49 153 224 224 224 313 326 0 352.5>
LayerCount: 2
Fore
SplineSet
347 584 m 1xbc
 225 584 l 1
 329 750 l 1
 467 750 l 1
 347 584 l 1xbc
218 -15 m 0
 117 -15 48 43 48 136 c 0
 48 212 107 269 215 287 c 2
 369 313 l 1
 369 326 l 2
 369 379 329 413 271 413 c 0
 222 413 184 390 157 353 c 1
 64 424 l 1
 109 486 183 524 275 524 c 0
 421 524 496 437 496 326 c 2
 496 0 l 1
 369 0 l 1x7c
 369 49 l 1
 337 10 277 -15 218 -15 c 0
174 142 m 0
 174 108 201 86 244 86 c 0
 302 86 344 113 369 153 c 1
 369 224 l 1
 249 204 l 2
 196 195 174 173 174 142 c 0
EndSplineSet
EndChar

StartChar: acircumflex
Encoding: 226 226 159
Width: 565
Flags: W
HStem: -15 101<222.5 247.5> 0 21G<369 496 369 369> 413 111<246.5 300> 584 166<200 208 97 362 354 354 354 362 200 465> 693 57<281 281>
VStem: 48 126<125 157.5 125 174> 369 127<0 49 49 49 153 224 224 224 313 326 0 352.5>
LayerCount: 2
Fore
SplineSet
208 584 m 1xb2
 97 584 l 1
 200 750 l 1
 362 750 l 1
 465 584 l 1
 354 584 l 1xb6
 281 693 l 1xaa
 208 584 l 1xb2
218 -15 m 0
 117 -15 48 43 48 136 c 0
 48 212 107 269 215 287 c 2
 369 313 l 1
 369 326 l 2
 369 379 329 413 271 413 c 0
 222 413 184 390 157 353 c 1
 64 424 l 1
 109 486 183 524 275 524 c 0
 421 524 496 437 496 326 c 2
 496 0 l 1
 369 0 l 1x76
 369 49 l 1
 337 10 277 -15 218 -15 c 0
174 142 m 0
 174 108 201 86 244 86 c 0
 302 86 344 113 369 153 c 1
 369 224 l 1
 249 204 l 2
 196 195 174 173 174 142 c 0
EndSplineSet
EndChar

StartChar: atilde
Encoding: 227 227 160
Width: 565
Flags: W
HStem: -15 101<222.5 247.5> 0 21G<369 496 369 369> 413 111<246.5 300> 582 93<331.5 360.5 331.5 397.5> 582 163<377 397.5> 589 163<164 184 92 244> 659 93<201 230>
VStem: 48 126<125 157.5 125 174> 92 92<589 629 629 632 589 667.5> 369 127<0 49 49 49 153 224 224 224 313 326 0 352.5> 377 92<701 705 705 745 667 745>
LayerCount: 2
Fore
SplineSet
469 745 m 1xa8a0
 469 705 l 2
 469 629 431 582 364 582 c 0xb120
 272 582 252 659 208 659 c 0
 194 659 184 649 184 632 c 2xa2c0
 184 589 l 1
 92 589 l 1xa4c0
 92 629 l 2
 92 706 130 752 198 752 c 0xa2c0
 290 752 310 675 353 675 c 0
 368 675 377 686 377 701 c 2xb0a0
 377 745 l 1
 469 745 l 1xa8a0
218 -15 m 0
 117 -15 48 43 48 136 c 0
 48 212 107 269 215 287 c 2
 369 313 l 1
 369 326 l 2
 369 379 329 413 271 413 c 0
 222 413 184 390 157 353 c 1
 64 424 l 1
 109 486 183 524 275 524 c 0
 421 524 496 437 496 326 c 2
 496 0 l 1
 369 0 l 1x6340
 369 49 l 1xa2c0
 337 10 277 -15 218 -15 c 0
174 142 m 0
 174 108 201 86 244 86 c 0
 302 86 344 113 369 153 c 1
 369 224 l 1xa340
 249 204 l 2
 196 195 174 173 174 142 c 0
EndSplineSet
EndChar

StartChar: adieresis
Encoding: 228 228 161
Width: 565
Flags: W
HStem: -15 101<222.5 247.5> 0 21G<369 496 369 369> 413 111<246.5 300> 604 154<150 191 371.5 412.5>
VStem: 48 126<125 157.5 125 174> 93 154<660 701.5> 315 154<660 701.5> 369 127<0 49 49 49 153 224 224 224 313 326 0 352.5>
LayerCount: 2
Fore
SplineSet
171 604 m 0xb5
 129 604 93 639 93 681 c 0
 93 722 129 758 171 758 c 0
 211 758 247 722 247 681 c 0
 247 639 211 604 171 604 c 0xb5
392 604 m 0xba
 351 604 315 639 315 681 c 0
 315 722 351 758 392 758 c 0
 433 758 469 722 469 681 c 0
 469 639 433 604 392 604 c 0xba
218 -15 m 0
 117 -15 48 43 48 136 c 0
 48 212 107 269 215 287 c 2
 369 313 l 1
 369 326 l 2
 369 379 329 413 271 413 c 0
 222 413 184 390 157 353 c 1
 64 424 l 1
 109 486 183 524 275 524 c 0
 421 524 496 437 496 326 c 2
 496 0 l 1
 369 0 l 1x79
 369 49 l 1xb5
 337 10 277 -15 218 -15 c 0
174 142 m 0
 174 108 201 86 244 86 c 0
 302 86 344 113 369 153 c 1
 369 224 l 1xb9
 249 204 l 2
 196 195 174 173 174 142 c 0
EndSplineSet
EndChar

StartChar: aring
Encoding: 229 229 162
Width: 565
Flags: W
HStem: -15 101<222.5 247.5> 0 21G<369 496 369 369> 413 111<246.5 300> 556 66<264.5 297.5 264.5 317.5> 732 66<264.5 297.5>
VStem: 48 126<125 157.5 125 174> 150 74<660.5 693.5 660.5 714> 338 75<660.5 693.5> 369 127<0 49 49 49 153 224 224 224 313 326 0 352.5>
LayerCount: 2
Fore
SplineSet
150 678 m 0xba80
 150 750 209 798 281 798 c 0
 354 798 413 750 413 678 c 0xbb
 413 604 354 556 281 556 c 0
 209 556 150 604 150 678 c 0xba80
338 677 m 0xbb
 338 710 314 732 281 732 c 0
 248 732 224 710 224 677 c 0
 224 644 248 622 281 622 c 0
 314 622 338 644 338 677 c 0xbb
218 -15 m 0xbc80
 117 -15 48 43 48 136 c 0
 48 212 107 269 215 287 c 2
 369 313 l 1
 369 326 l 2
 369 379 329 413 271 413 c 0
 222 413 184 390 157 353 c 1
 64 424 l 1
 109 486 183 524 275 524 c 0
 421 524 496 437 496 326 c 2
 496 0 l 1
 369 0 l 1x7c80
 369 49 l 1
 337 10 277 -15 218 -15 c 0xbc80
174 142 m 0
 174 108 201 86 244 86 c 0
 302 86 344 113 369 153 c 1
 369 224 l 1
 249 204 l 2
 196 195 174 173 174 142 c 0
EndSplineSet
EndChar

StartChar: ae
Encoding: 230 230 163
Width: 908
Flags: W
HStem: -20 114<608 676.5 608 696> -13 100<222.5 267.5> 226 92<501 735 501 851 498 735> 413 111<247 300.5> 420 104<593 659>
VStem: 48 126<126 157.5 126 174> 735 125<318 318>
LayerCount: 2
Fore
SplineSet
220 -13 m 0x6e
 117 -13 48 44 48 136 c 0
 48 212 107 269 216 287 c 2
 370 313 l 1
 370 326 l 2
 370 379 329 413 272 413 c 0
 222 413 184 390 158 353 c 1xb6
 64 424 l 1
 109 486 184 524 276 524 c 0
 355 524 413 498 449 457 c 1
 492 499 552 524 627 524 c 0
 768 524 860 430 860 298 c 0
 860 270 856 243 851 226 c 1
 498 226 l 1
 510 132 568 94 648 94 c 0
 705 94 750 118 778 154 c 1
 869 82 l 1
 821 19 744 -20 648 -20 c 0xae
 546 -20 469 21 422 85 c 1
 380 26 315 -13 220 -13 c 0x6e
623 420 m 0
 563 420 516 393 501 318 c 1
 735 318 l 1
 733 369 695 420 623 420 c 0
174 142 m 0
 174 110 201 87 244 87 c 0
 308 87 351 122 381 170 c 1
 376 188 373 206 371 224 c 1
 249 204 l 2
 196 195 174 173 174 142 c 0
EndSplineSet
EndChar

StartChar: ccedilla
Encoding: 231 231 164
Width: 550
Flags: W
HStem: -13 21G<250 250> 404 120<274.5 342>
VStem: 40 132<207.5 296 207.5 325.5>
LayerCount: 2
Fore
SplineSet
318 100 m 0
 368 100 408 123 432 158 c 1
 531 82 l 1
 494 34 441 -1 376 -14 c 1
 288 -160 l 1
 162 -160 l 1
 250 -13 l 1
 117 15 40 125 40 252 c 0
 40 399 144 524 318 524 c 0
 410 524 484 484 531 422 c 1
 432 346 l 1
 408 381 368 404 316 404 c 0
 233 404 172 340 172 252 c 0
 172 163 233 100 318 100 c 0
EndSplineSet
EndChar

StartChar: egrave
Encoding: 232 232 165
Width: 579
Flags: W
HStem: -20 114<279.5 346.5 279.5 367.5> 226 92<174 406 174 523 170 406> 420 104<263.5 331.5> 584 166<237 237 237 255 117 358>
VStem: 406 125<318 318>
LayerCount: 2
Fore
SplineSet
237 584 m 1
 117 750 l 1
 255 750 l 1
 358 584 l 1
 237 584 l 1
540 82 m 1
 493 19 415 -20 320 -20 c 0
 141 -20 40 105 40 252 c 0
 40 401 134 524 299 524 c 0
 439 524 531 429 531 297 c 0
 531 269 527 243 523 226 c 1
 170 226 l 1
 182 132 240 94 319 94 c 0
 374 94 422 118 449 154 c 1
 540 82 l 1
296 420 m 0
 231 420 188 384 174 318 c 1
 406 318 l 1
 404 369 367 420 296 420 c 0
EndSplineSet
EndChar

StartChar: eacute
Encoding: 233 233 166
Width: 579
Flags: W
HStem: -20 114<279.5 346.5 279.5 367.5> 226 92<174 406 174 523 170 406> 420 104<263.5 331.5> 584 166<351 369 247 489>
VStem: 406 125<318 318>
LayerCount: 2
Fore
SplineSet
369 584 m 1
 247 584 l 1
 351 750 l 1
 489 750 l 1
 369 584 l 1
540 82 m 1
 493 19 415 -20 320 -20 c 0
 141 -20 40 105 40 252 c 0
 40 401 134 524 299 524 c 0
 439 524 531 429 531 297 c 0
 531 269 527 243 523 226 c 1
 170 226 l 1
 182 132 240 94 319 94 c 0
 374 94 422 118 449 154 c 1
 540 82 l 1
296 420 m 0
 231 420 188 384 174 318 c 1
 406 318 l 1
 404 369 367 420 296 420 c 0
EndSplineSet
EndChar

StartChar: ecircumflex
Encoding: 234 234 167
Width: 579
Flags: W
HStem: -20 114<279.5 346.5 279.5 367.5> 226 92<174 406 174 523 170 406> 420 104<263.5 331.5> 584 166<222 230 119 384 376 376 376 384 222 487> 693 57<303 303>
VStem: 406 125<318 318>
LayerCount: 2
Fore
SplineSet
230 584 m 1xf4
 119 584 l 1
 222 750 l 1
 384 750 l 1
 487 584 l 1
 376 584 l 1xf4
 303 693 l 1xec
 230 584 l 1xf4
540 82 m 1
 493 19 415 -20 320 -20 c 0
 141 -20 40 105 40 252 c 0
 40 401 134 524 299 524 c 0
 439 524 531 429 531 297 c 0
 531 269 527 243 523 226 c 1
 170 226 l 1
 182 132 240 94 319 94 c 0
 374 94 422 118 449 154 c 1
 540 82 l 1
296 420 m 0
 231 420 188 384 174 318 c 1
 406 318 l 1
 404 369 367 420 296 420 c 0
EndSplineSet
EndChar

StartChar: edieresis
Encoding: 235 235 168
Width: 579
Flags: W
HStem: -20 114<279.5 346.5 279.5 367.5> 226 92<174 406 174 523 170 406> 420 104<263.5 331.5> 604 154<172 213 393.5 434.5>
VStem: 115 154<660 701.5> 337 154<660 701.5> 406 125<318 318>
LayerCount: 2
Fore
SplineSet
193 604 m 0xfa
 151 604 115 639 115 681 c 0
 115 722 151 758 193 758 c 0
 233 758 269 722 269 681 c 0
 269 639 233 604 193 604 c 0xfa
414 604 m 0xfc
 373 604 337 639 337 681 c 0
 337 722 373 758 414 758 c 0
 455 758 491 722 491 681 c 0
 491 639 455 604 414 604 c 0xfc
540 82 m 1
 493 19 415 -20 320 -20 c 0
 141 -20 40 105 40 252 c 0
 40 401 134 524 299 524 c 0
 439 524 531 429 531 297 c 0
 531 269 527 243 523 226 c 1xfa
 170 226 l 1
 182 132 240 94 319 94 c 0
 374 94 422 118 449 154 c 1
 540 82 l 1
296 420 m 0xfa
 231 420 188 384 174 318 c 1
 406 318 l 1
 404 369 367 420 296 420 c 0xfa
EndSplineSet
EndChar

StartChar: igrave
Encoding: 236 236 169
Width: 279
Flags: W
HStem: 0 21G<76 76 76 203> 484 20G<76 203 203 203> 584 166<74 74 74 92 -46 195>
VStem: 76 127<0 504 0 504>
LayerCount: 2
Fore
SplineSet
74 584 m 1
 -46 750 l 1
 92 750 l 1
 195 584 l 1
 74 584 l 1
76 0 m 1
 76 504 l 1
 203 504 l 1
 203 0 l 1
 76 0 l 1
EndSplineSet
EndChar

StartChar: iacute
Encoding: 237 237 170
Width: 279
Flags: W
HStem: 0 21G<76 76 76 203> 484 20G<76 203 203 203> 584 166<188 206 84 326>
VStem: 76 127<0 504 0 504>
LayerCount: 2
Fore
SplineSet
206 584 m 1
 84 584 l 1
 188 750 l 1
 326 750 l 1
 206 584 l 1
76 0 m 1
 76 504 l 1
 203 504 l 1
 203 0 l 1
 76 0 l 1
EndSplineSet
EndChar

StartChar: icircumflex
Encoding: 238 238 171
Width: 279
Flags: W
HStem: 0 21G<76 76 76 203> 484 20G<76 203 203 203> 584 166<59 67 -44 221 213 213 213 221 59 324> 693 57<140 140>
VStem: 76 127<0 504 0 504>
LayerCount: 2
Fore
SplineSet
67 584 m 1xe8
 -44 584 l 1
 59 750 l 1
 221 750 l 1
 324 584 l 1
 213 584 l 1xe8
 140 693 l 1xd8
 67 584 l 1xe8
76 0 m 1
 76 504 l 1
 203 504 l 1
 203 0 l 1
 76 0 l 1
EndSplineSet
EndChar

StartChar: idieresis
Encoding: 239 239 172
Width: 279
Flags: W
HStem: 0 21G<76 76 76 203> 484 20G<76 203 203 203> 604 154<9 50 230.5 271.5>
VStem: -48 154<660 701.5> 76 127<0 504 0 504> 174 154<660 701.5>
LayerCount: 2
Fore
SplineSet
30 604 m 0xf4
 -12 604 -48 639 -48 681 c 0
 -48 722 -12 758 30 758 c 0
 70 758 106 722 106 681 c 0
 106 639 70 604 30 604 c 0xf4
251 604 m 0
 210 604 174 639 174 681 c 0
 174 722 210 758 251 758 c 0
 292 758 328 722 328 681 c 0
 328 639 292 604 251 604 c 0
76 0 m 1xe8
 76 504 l 1
 203 504 l 1
 203 0 l 1
 76 0 l 1xe8
EndSplineSet
EndChar

StartChar: eth
Encoding: 240 240 173
Width: 630
Flags: W
HStem: -20 119<276 362.5 276 404> 389 120<272.5 322.5 224.5 343.5> 666 84<234 234> 682 20G<366 366>
VStem: 40 132<200 287 200 321.5> 460 130<221.5 281>
LayerCount: 2
Fore
SplineSet
126 540 m 1xdc
 126 636 l 1
 234 666 l 1
 197 693 155 721 108 750 c 1
 293 750 l 1xec
 318 736 343 720 366 702 c 1xdc
 542 750 l 1
 542 654 l 1xec
 444 627 l 1
 532 526 590 396 590 284 c 0
 590 108 490 -20 318 -20 c 0
 150 -20 40 98 40 243 c 0
 40 400 149 509 300 509 c 0
 345 509 381 497 413 476 c 1
 391 517 360 555 321 593 c 1
 126 540 l 1xdc
172 243 m 0
 172 157 236 99 316 99 c 0
 409 99 460 167 460 276 c 0
 460 286 460 296 459 305 c 1
 424 358 373 389 314 389 c 0
 231 389 172 331 172 243 c 0
EndSplineSet
EndChar

StartChar: ntilde
Encoding: 241 241 174
Width: 616
Flags: W
HStem: 0 21G<76 76 76 203 420 420 420 548> 404 100<76 351> 404 120<318.5 351> 582 93<372.5 401.5 372.5 438.5> 582 163<418 438.5> 589 163<205 225 133 285> 659 93<242 271>
VStem: 76 127<0 329 464 504> 133 92<589 629 629 632 589 667.5> 418 92<701 705 705 745 667 745> 420 128<0 295 295 300 0 328.5>
LayerCount: 2
Fore
SplineSet
510 745 m 1xa940
 510 705 l 2
 510 629 472 582 405 582 c 0xb140
 313 582 293 659 249 659 c 0
 235 659 225 649 225 632 c 2xa2a0
 225 589 l 1
 133 589 l 1xa4a0
 133 629 l 2
 133 706 171 752 239 752 c 0xa2a0
 331 752 351 675 394 675 c 0
 409 675 418 686 418 701 c 2xb140
 418 745 l 1
 510 745 l 1xa940
76 0 m 1
 76 504 l 1
 203 504 l 1xc320
 203 464 l 1
 238 498 285 524 352 524 c 0
 461 524 548 449 548 300 c 2
 548 0 l 1
 420 0 l 1
 420 295 l 2
 420 362 382 404 320 404 c 0xa320
 256 404 222 361 203 329 c 1
 203 0 l 1
 76 0 l 1
EndSplineSet
EndChar

StartChar: ograve
Encoding: 242 242 175
Width: 632
Flags: W
HStem: -20 120<276 358.5 276 398> 404 120<276 358.5> 584 166<250 250 250 268 130 371>
VStem: 40 132<208 296 208 327.5> 460 132<208.5 296>
LayerCount: 2
Fore
SplineSet
250 584 m 1
 130 750 l 1
 268 750 l 1
 371 584 l 1
 250 584 l 1
316 524 m 0
 480 524 592 403 592 252 c 0
 592 101 480 -20 316 -20 c 0
 152 -20 40 101 40 252 c 0
 40 403 152 524 316 524 c 0
318 100 m 0
 399 100 460 165 460 252 c 0
 460 340 399 404 318 404 c 0
 234 404 172 340 172 252 c 0
 172 164 234 100 318 100 c 0
EndSplineSet
EndChar

StartChar: oacute
Encoding: 243 243 176
Width: 632
Flags: W
HStem: -20 120<276 358.5 276 398> 404 120<276 358.5> 584 166<364 382 260 502>
VStem: 40 132<208 296 208 327.5> 460 132<208.5 296>
LayerCount: 2
Fore
SplineSet
382 584 m 1
 260 584 l 1
 364 750 l 1
 502 750 l 1
 382 584 l 1
316 524 m 0
 480 524 592 403 592 252 c 0
 592 101 480 -20 316 -20 c 0
 152 -20 40 101 40 252 c 0
 40 403 152 524 316 524 c 0
318 100 m 0
 399 100 460 165 460 252 c 0
 460 340 399 404 318 404 c 0
 234 404 172 340 172 252 c 0
 172 164 234 100 318 100 c 0
EndSplineSet
EndChar

StartChar: ocircumflex
Encoding: 244 244 177
Width: 632
Flags: W
HStem: -20 120<276 358.5 276 398> 404 120<276 358.5> 584 166<235 243 132 397 389 389 389 397 235 500> 693 57<316 316>
VStem: 40 132<208 296 208 327.5> 460 132<208.5 296>
LayerCount: 2
Fore
SplineSet
243 584 m 1xec
 132 584 l 1
 235 750 l 1
 397 750 l 1
 500 584 l 1
 389 584 l 1xec
 316 693 l 1xdc
 243 584 l 1xec
316 524 m 0
 480 524 592 403 592 252 c 0
 592 101 480 -20 316 -20 c 0
 152 -20 40 101 40 252 c 0
 40 403 152 524 316 524 c 0
318 100 m 0
 399 100 460 165 460 252 c 0
 460 340 399 404 318 404 c 0
 234 404 172 340 172 252 c 0
 172 164 234 100 318 100 c 0
EndSplineSet
EndChar

StartChar: otilde
Encoding: 245 245 178
Width: 632
Flags: W
HStem: -20 120<276 358.5 276 398> 404 120<276 358.5> 582 93<366.5 395.5 366.5 432.5> 582 163<412 432.5> 589 163<199 219 127 279> 659 93<236 265>
VStem: 40 132<208 296 208 327.5> 127 92<589 629 629 632 589 667.5> 412 92<701 705 705 745 667 745> 460 132<208.5 296>
LayerCount: 2
Fore
SplineSet
504 745 m 1xd280
 504 705 l 2
 504 629 466 582 399 582 c 0xe280
 307 582 287 659 243 659 c 0
 229 659 219 649 219 632 c 2xc540
 219 589 l 1
 127 589 l 1xc940
 127 629 l 2
 127 706 165 752 233 752 c 0xc540
 325 752 345 675 388 675 c 0
 403 675 412 686 412 701 c 2xe280
 412 745 l 1
 504 745 l 1xd280
316 524 m 0xc640
 480 524 592 403 592 252 c 0
 592 101 480 -20 316 -20 c 0
 152 -20 40 101 40 252 c 0
 40 403 152 524 316 524 c 0xc640
318 100 m 0
 399 100 460 165 460 252 c 0
 460 340 399 404 318 404 c 0
 234 404 172 340 172 252 c 0
 172 164 234 100 318 100 c 0
EndSplineSet
EndChar

StartChar: odieresis
Encoding: 246 246 179
Width: 632
Flags: W
HStem: -20 120<276 358.5 276 398> 404 120<276 358.5> 604 154<185 226 406.5 447.5>
VStem: 40 132<208 296 208 327.5> 128 154<660 701.5> 350 154<660 701.5> 460 132<208.5 296>
LayerCount: 2
Fore
SplineSet
206 604 m 0xec
 164 604 128 639 128 681 c 0
 128 722 164 758 206 758 c 0
 246 758 282 722 282 681 c 0
 282 639 246 604 206 604 c 0xec
427 604 m 0
 386 604 350 639 350 681 c 0
 350 722 386 758 427 758 c 0
 468 758 504 722 504 681 c 0
 504 639 468 604 427 604 c 0
316 524 m 0xf2
 480 524 592 403 592 252 c 0
 592 101 480 -20 316 -20 c 0
 152 -20 40 101 40 252 c 0
 40 403 152 524 316 524 c 0xf2
318 100 m 0
 399 100 460 165 460 252 c 0
 460 340 399 404 318 404 c 0
 234 404 172 340 172 252 c 0
 172 164 234 100 318 100 c 0
EndSplineSet
EndChar

StartChar: divide
Encoding: 247 247 180
Width: 600
Flags: W
HStem: -18 142<280.5 319.5> 198 108<48 551 48 551> 379 143<280.5 319.5>
VStem: 228 143<34 72.5 431 469.5>
LayerCount: 2
Fore
SplineSet
300 379 m 0
 261 379 228 412 228 450 c 0
 228 489 261 522 300 522 c 0
 339 522 371 489 371 450 c 0
 371 412 339 379 300 379 c 0
551 198 m 1
 48 198 l 1
 48 306 l 1
 551 306 l 1
 551 198 l 1
300 -18 m 0
 261 -18 228 15 228 53 c 0
 228 92 261 124 300 124 c 0
 339 124 371 92 371 53 c 0
 371 15 339 -18 300 -18 c 0
EndSplineSet
EndChar

StartChar: oslash
Encoding: 248 248 181
Width: 632
Flags: W
HStem: -20 120<309.5 358.5 309.5 398> 404 120<276 325.5> 435 89<525 525>
VStem: 40 132<237 296 237 327.5> 460 132<208.5 267>
LayerCount: 2
Fore
SplineSet
168 -20 m 1xd8
 40 -20 l 1
 108 69 l 1
 65 117 40 181 40 252 c 0
 40 403 152 524 316 524 c 0
 363 524 406 514 443 496 c 1
 464 524 l 1
 592 524 l 1xd8
 525 435 l 1xb8
 568 386 592 322 592 252 c 0
 592 101 480 -20 316 -20 c 0
 269 -20 226 -10 189 8 c 1
 168 -20 l 1xd8
172 252 m 0
 172 222 179 195 192 172 c 1
 362 397 l 1
 348 402 333 404 318 404 c 0
 234 404 172 340 172 252 c 0
318 100 m 0
 399 100 460 165 460 252 c 0
 460 282 453 309 440 332 c 1
 271 107 l 1
 286 102 301 100 318 100 c 0
EndSplineSet
EndChar

StartChar: ugrave
Encoding: 249 249 182
Width: 601
Flags: W
HStem: -20 120<266 335.5 266 374> 484 20G<65 193 193 193 408 536 536 536> 584 166<235 235 235 253 115 356>
VStem: 65 128<224 504> 408 128<218 224 224 504>
LayerCount: 2
Fore
SplineSet
235 584 m 1
 115 750 l 1
 253 750 l 1
 356 584 l 1
 235 584 l 1
408 218 m 2
 408 504 l 1
 536 504 l 1
 536 224 l 2
 536 73 448 -20 300 -20 c 0
 152 -20 65 73 65 224 c 2
 65 504 l 1
 193 504 l 1
 193 218 l 2
 193 145 231 100 301 100 c 0
 370 100 408 145 408 218 c 2
EndSplineSet
EndChar

StartChar: uacute
Encoding: 250 250 183
Width: 601
Flags: W
HStem: -20 120<266 335.5 266 374> 484 20G<65 193 193 193 408 536 536 536> 584 166<349 367 245 487>
VStem: 65 128<224 504> 408 128<218 224 224 504>
LayerCount: 2
Fore
SplineSet
367 584 m 1
 245 584 l 1
 349 750 l 1
 487 750 l 1
 367 584 l 1
408 218 m 2
 408 504 l 1
 536 504 l 1
 536 224 l 2
 536 73 448 -20 300 -20 c 0
 152 -20 65 73 65 224 c 2
 65 504 l 1
 193 504 l 1
 193 218 l 2
 193 145 231 100 301 100 c 0
 370 100 408 145 408 218 c 2
EndSplineSet
EndChar

StartChar: ucircumflex
Encoding: 251 251 184
Width: 601
Flags: W
HStem: -20 120<266 335.5 266 374> 484 20G<65 193 193 193 408 536 536 536> 584 166<220 228 117 382 374 374 374 382 220 485> 693 57<301 301>
VStem: 65 128<224 504> 408 128<218 224 224 504>
LayerCount: 2
Fore
SplineSet
228 584 m 1xec
 117 584 l 1
 220 750 l 1
 382 750 l 1
 485 584 l 1
 374 584 l 1xec
 301 693 l 1xdc
 228 584 l 1xec
408 218 m 2
 408 504 l 1
 536 504 l 1
 536 224 l 2
 536 73 448 -20 300 -20 c 0
 152 -20 65 73 65 224 c 2
 65 504 l 1
 193 504 l 1
 193 218 l 2
 193 145 231 100 301 100 c 0
 370 100 408 145 408 218 c 2
EndSplineSet
EndChar

StartChar: udieresis
Encoding: 252 252 185
Width: 601
Flags: W
HStem: -20 120<266 335.5 266 374> 484 20G<65 193 193 193 408 536 536 536> 604 154<170 211 391.5 432.5>
VStem: 65 128<224 504> 113 154<660 701.5> 335 154<660 701.5> 408 128<218 224 224 504>
LayerCount: 2
Fore
SplineSet
191 604 m 0xec
 149 604 113 639 113 681 c 0
 113 722 149 758 191 758 c 0
 231 758 267 722 267 681 c 0
 267 639 231 604 191 604 c 0xec
412 604 m 0
 371 604 335 639 335 681 c 0
 335 722 371 758 412 758 c 0
 453 758 489 722 489 681 c 0
 489 639 453 604 412 604 c 0
408 218 m 2xf2
 408 504 l 1
 536 504 l 1
 536 224 l 2
 536 73 448 -20 300 -20 c 0
 152 -20 65 73 65 224 c 2
 65 504 l 1
 193 504 l 1
 193 218 l 2
 193 145 231 100 301 100 c 0
 370 100 408 145 408 218 c 2xf2
EndSplineSet
EndChar

StartChar: yacute
Encoding: 253 253 186
Width: 560
Flags: W
HStem: -250 116<94.5 111 75 162> 484 20G<4 145 145 145 422 556 556 556> 584 166<328 346 224 466>
VStem: 4 552<504 504>
LayerCount: 2
Fore
SplineSet
346 584 m 1
 224 584 l 1
 328 750 l 1
 466 750 l 1
 346 584 l 1
302 -115 m 2
 267 -198 210 -250 114 -250 c 0
 75 -250 48 -244 24 -234 c 1
 24 -122 l 1
 40 -129 64 -134 86 -134 c 0
 136 -134 167 -117 188 -66 c 2
 216 1 l 1
 4 504 l 1
 145 504 l 1
 283 165 l 1
 422 504 l 1
 556 504 l 1
 302 -115 l 2
EndSplineSet
EndChar

StartChar: thorn
Encoding: 254 254 187
Width: 656
Flags: W
HStem: -246 21G<76 76 76 203> -20 120<327 385 312.5 440> 404 120<327 385> 730 20G<76 203 203 203>
VStem: 76 127<-246 36 175 329 468 750> 484 132<208 296>
LayerCount: 2
Fore
SplineSet
76 -246 m 1
 76 750 l 1
 203 750 l 1
 203 468 l 1
 243 504 294 524 360 524 c 0
 520 524 616 399 616 252 c 0
 616 105 520 -20 360 -20 c 0
 294 -20 243 0 203 36 c 1
 203 -246 l 1
 76 -246 l 1
204 176 m 1
 238 126 283 100 342 100 c 0
 428 100 484 164 484 252 c 0
 484 340 428 404 342 404 c 0
 283 404 238 378 204 328 c 1
 203 329 l 1
 203 175 l 1
 204 176 l 1
EndSplineSet
EndChar

StartChar: ydieresis
Encoding: 255 255 188
Width: 560
Flags: W
HStem: -250 116<94.5 111 75 162> 484 20G<4 145 145 145 422 556 556 556> 604 154<149 190 370.5 411.5>
VStem: 92 154<660 701.5> 314 154<660 701.5>
LayerCount: 2
Fore
SplineSet
170 604 m 0
 128 604 92 639 92 681 c 0
 92 722 128 758 170 758 c 0
 210 758 246 722 246 681 c 0
 246 639 210 604 170 604 c 0
391 604 m 0
 350 604 314 639 314 681 c 0
 314 722 350 758 391 758 c 0
 432 758 468 722 468 681 c 0
 468 639 432 604 391 604 c 0
302 -115 m 2
 267 -198 210 -250 114 -250 c 0
 75 -250 48 -244 24 -234 c 1
 24 -122 l 1
 40 -129 64 -134 86 -134 c 0
 136 -134 167 -117 188 -66 c 2
 216 1 l 1
 4 504 l 1
 145 504 l 1
 283 165 l 1
 422 504 l 1
 556 504 l 1
 302 -115 l 2
EndSplineSet
EndChar
